<?xml version="1.0" encoding="utf-8"?>
<!-- Generator: Adobe Illustrator 15.0.0, SVG Export Plug-In . SVG Version: 6.00 Build 0)  -->
<!DOCTYPE svg PUBLIC "-//W3C//DTD SVG 1.1//EN" "http://www.w3.org/Graphics/SVG/1.1/DTD/svg11.dtd">
<svg version="1.1" id="Layer_1" xmlns="http://www.w3.org/2000/svg" xmlns:xlink="http://www.w3.org/1999/xlink" x="0px" y="0px"
	 width="241px" height="130.898px" viewBox="0 0 241 130.898" enable-background="new 0 0 241 130.898" xml:space="preserve">
<path fill="#5FB349" d="M17.859,78.086c0.999,0,1.981-0.147,2.913-0.434c0.329-0.097,0.656-0.212,1.002-0.355l0.337-0.155
	c0.114-0.047,0.23-0.104,0.348-0.174l0.444-0.268l-0.87-1.614l-1.113,0.507c-0.266,0.117-0.515,0.21-0.769,0.282
	c-0.67,0.219-1.386,0.331-2.128,0.331c-1.641,0-2.938-0.559-3.971-1.711c-1.063-1.164-1.58-2.644-1.58-4.525
	c0-1.797,0.495-3.256,1.512-4.46c1.086-1.287,2.506-1.913,4.341-1.913c0.67,0,1.322,0.102,1.92,0.295
	c0.236,0.084,0.471,0.187,0.688,0.294l1.055,0.579l0.96-1.564l-0.381-0.299c-0.478-0.376-1.152-0.677-2.006-0.895
	c-0.763-0.192-1.506-0.289-2.209-0.289c-2.275,0-4.182,0.772-5.667,2.295c-1.516,1.558-2.285,3.599-2.285,6.066
	c0,2.317,0.692,4.245,2.055,5.727C13.832,77.318,15.65,78.086,17.859,78.086z"/>
<path fill="#5FB349" d="M30.542,78.112c1.922,0,3.593-0.667,4.966-1.979c0.769-0.732,1.364-1.616,1.769-2.625
	c0.444-1.101,0.669-2.356,0.669-3.731c0-2.349-0.662-4.29-1.964-5.765c-1.324-1.522-3.099-2.294-5.275-2.294
	c-2.005,0-3.719,0.729-5.097,2.167c-1.478,1.555-2.227,3.629-2.227,6.168c0,2.37,0.691,4.332,2.052,5.827
	C26.757,77.361,28.475,78.112,30.542,78.112z M34.633,65.606c0.824,1.193,1.242,2.633,1.242,4.282c0,1.842-0.534,3.386-1.587,4.59
	c-1.031,1.181-2.247,1.754-3.717,1.754c-1.409,0-2.585-0.604-3.598-1.85c-1.02-1.243-1.517-2.686-1.517-4.412
	c0-1.749,0.458-3.238,1.366-4.431c0.977-1.307,2.256-1.942,3.912-1.942C32.401,63.597,33.678,64.256,34.633,65.606z"/>
<path fill="#5FB349" d="M40.084,65.897v11.886h2.042v-9.699c0-1.091,0.402-2.074,1.229-3c0.886-0.983,1.917-1.461,3.149-1.461
	c1.31,0,2.263,0.468,2.911,1.43c0.573,0.851,0.863,2.019,0.863,3.47v9.261h2.045V68.44c0-1.384-0.228-2.59-0.678-3.585
	c-0.382-0.847-0.936-1.544-1.646-2.072c-0.543-0.404-1.167-0.701-1.882-0.89c-0.266-0.056-0.522-0.105-0.797-0.146
	c-0.198-0.018-0.398-0.029-0.597-0.029c-1.942,0-3.516,0.679-4.697,2.022l-0.05-1.695h-2.041l0.042,0.583
	C40.049,63.622,40.084,64.722,40.084,65.897z"/>
<path fill="#5FB349" d="M66.126,77.154c0.092-0.045,0.175-0.095,0.244-0.14l0.389-0.252l-0.743-1.684l-0.509,0.253
	c-0.275,0.136-0.479,0.229-0.632,0.29c-0.267,0.115-0.525,0.208-0.782,0.279c-0.699,0.203-1.513,0.306-2.419,0.306
	c-1.704,0-3.003-0.439-3.862-1.305c-0.874-0.881-1.347-2.254-1.41-4.086h10.86l0.122-0.376c0.037-0.112,0.054-0.238,0.054-0.386
	v-0.246c0-1.348-0.097-2.422-0.285-3.175c-0.196-0.899-0.513-1.703-0.947-2.396c-0.505-0.786-1.15-1.398-1.918-1.821
	c-0.844-0.462-1.843-0.697-2.968-0.697c-2.017,0-3.691,0.754-4.975,2.24c-1.34,1.549-2.019,3.645-2.019,6.231
	c0,2.296,0.654,4.192,1.939,5.632c1.321,1.503,3.095,2.266,5.273,2.266c0.642,0,1.264-0.039,1.861-0.118
	c0.497-0.076,0.973-0.183,1.399-0.314c0.359-0.1,0.691-0.221,0.921-0.333C65.854,77.279,65.99,77.221,66.126,77.154z M61.21,63.572
	c0.813,0,1.494,0.186,2.089,0.572c0.502,0.316,0.917,0.772,1.23,1.351C64.797,66,65,66.576,65.132,67.202
	c0.082,0.421,0.131,0.985,0.148,1.678h-8.715c0.195-1.552,0.624-2.763,1.277-3.606C58.724,64.128,59.826,63.572,61.21,63.572z"/>
<path fill="#5FB349" d="M75.806,78.086c0.998,0,1.981-0.147,2.914-0.434c0.329-0.097,0.655-0.212,1.002-0.355l0.337-0.155
	c0.114-0.046,0.227-0.104,0.344-0.173l0.448-0.266l-0.87-1.616l-1.112,0.507c-0.267,0.117-0.516,0.21-0.772,0.282
	c-0.669,0.219-1.385,0.331-2.127,0.331c-1.639,0-2.937-0.559-3.97-1.711c-1.063-1.164-1.58-2.644-1.58-4.525
	c0-1.799,0.494-3.257,1.512-4.46c1.084-1.287,2.504-1.913,4.341-1.913c0.67,0,1.322,0.102,1.919,0.295
	c0.236,0.085,0.473,0.187,0.69,0.294l1.055,0.579l0.96-1.564l-0.381-0.299c-0.477-0.375-1.151-0.676-2.007-0.895
	c-0.761-0.192-1.505-0.289-2.21-0.289c-2.275,0-4.181,0.772-5.665,2.295c-1.517,1.558-2.286,3.599-2.286,6.066
	c0,2.319,0.692,4.246,2.055,5.727C71.778,77.318,73.596,78.086,75.806,78.086z"/>
<path fill="#5FB349" d="M83.707,76.249c0.58,1.202,1.686,1.838,3.195,1.838c0.734,0,1.438-0.133,2.09-0.396l0.464-0.187L88.92,75.77
	l-0.817,0.298c-0.082,0.026-0.169,0.048-0.287,0.065c-0.269,0.049-0.558,0.074-0.86,0.074c-0.479,0-1.751,0-1.751-2.683v-9.542
	h4.318v-1.937h-4.318v-3.421l-2.044,0.94v13.632c0,0.566,0.03,1.061,0.086,1.462C83.328,75.285,83.485,75.825,83.707,76.249z"/>
<path fill="#5FB349" d="M102.062,77.522l0.27-0.013l0.334-0.371l-0.009-0.233c-0.017-0.411-0.324-0.88-1.061-1.621
	c-0.49-0.488-0.728-0.984-0.728-1.515v-5.794c0-0.738-0.059-1.425-0.176-2.05c-0.158-0.769-0.41-1.45-0.756-2.037
	c-0.903-1.44-2.391-2.17-4.422-2.17c-0.673,0-1.375,0.098-2.101,0.296c-0.835,0.255-1.602,0.62-2.278,1.084l-0.402,0.276
	l0.907,1.688l0.502-0.362c0.993-0.714,2.099-1.077,3.288-1.077c0.801,0,1.466,0.166,1.965,0.483
	c0.421,0.286,0.753,0.688,0.984,1.192c0.194,0.434,0.327,0.959,0.392,1.538l0.054,0.948c-5.949,0.042-8.965,2.008-8.965,5.848
	c0,1.197,0.389,2.222,1.156,3.046c0.887,0.951,2.105,1.433,3.624,1.433c1.191,0,2.299-0.313,3.288-0.928
	c0.624-0.38,1.145-0.836,1.554-1.363C101.578,77.522,101.824,77.522,102.062,77.522z M98.795,69.716v2.987
	c0,0.701-0.314,1.417-0.929,2.126c-0.371,0.418-0.81,0.751-1.303,0.988c-0.579,0.275-1.245,0.414-1.979,0.414
	c-0.746,0-1.352-0.216-1.848-0.653c-0.543-0.496-0.808-1.186-0.808-2.112c0-0.779,0.232-1.42,0.714-1.967
	c0.408-0.471,1.03-0.859,1.856-1.158c0.679-0.253,1.505-0.426,2.472-0.516C97.546,69.756,98.16,69.72,98.795,69.716z"/>
<path fill="#5FB349" d="M114.014,62.784c-0.541-0.404-1.165-0.702-1.881-0.891c-0.266-0.056-0.523-0.105-0.798-0.146
	c-0.2-0.019-0.397-0.029-0.599-0.029c-1.941,0-3.516,0.68-4.696,2.024l-0.051-1.696h-2.041l0.042,0.583
	c0.072,1.006,0.108,2.106,0.108,3.27v11.886h2.044v-9.699c0-1.091,0.402-2.074,1.226-3c0.887-0.983,1.917-1.461,3.151-1.461
	c1.31,0,2.263,0.468,2.911,1.429c0.572,0.855,0.863,2.022,0.863,3.471v9.261h2.045V68.44c0-1.381-0.228-2.587-0.678-3.588
	C115.274,64.002,114.719,63.305,114.014,62.784z"/>
<path fill="#5FB349" d="M130.108,76.076l0.016,1.637l2.042,0.179l-0.142-22.926h-2.04v8.522c-0.382-0.366-0.837-0.689-1.36-0.966
	c-0.99-0.533-2.023-0.804-3.071-0.804c-2.033,0-3.745,0.779-5.083,2.313c-1.397,1.576-2.096,3.649-2.075,6.162
	c0.019,2.29,0.67,4.2,1.936,5.679c1.284,1.486,2.938,2.24,4.919,2.24C127.354,78.112,128.981,77.428,130.108,76.076z
	 M125.524,63.597c1.278,0,2.321,0.438,3.182,1.331c0.86,0.929,1.278,2.052,1.278,3.43v3.006c0,1.191-0.406,2.258-1.242,3.261
	c-0.9,1.082-1.988,1.607-3.326,1.607c-1.525,0-2.724-0.617-3.662-1.882c-0.856-1.176-1.29-2.621-1.29-4.297
	c0-1.907,0.477-3.487,1.411-4.69C122.832,64.175,124.025,63.597,125.524,63.597z"/>
<path fill="#5FB349" d="M141.432,61.718c-2.004,0-3.718,0.729-5.095,2.167c-1.477,1.554-2.226,3.629-2.226,6.168
	c0,2.372,0.691,4.333,2.05,5.827c1.322,1.481,3.041,2.233,5.108,2.233c1.923,0,3.594-0.667,4.966-1.979
	c0.766-0.731,1.361-1.614,1.769-2.625c0.443-1.099,0.668-2.355,0.668-3.731c0-2.351-0.662-4.291-1.965-5.764
	C145.387,62.49,143.612,61.718,141.432,61.718z M141.295,76.232c-1.407,0-2.583-0.604-3.598-1.85
	c-1.02-1.242-1.516-2.686-1.516-4.412c0-1.75,0.459-3.239,1.369-4.432c0.974-1.307,2.252-1.941,3.908-1.941
	c1.669,0,2.945,0.659,3.899,2.009c0.824,1.192,1.243,2.632,1.243,4.281c0,1.842-0.534,3.386-1.589,4.59
	C143.983,75.658,142.767,76.232,141.295,76.232z"/>
<path fill="#5FB349" d="M19.5,98.175c-3.459-1.458-5.213-3.14-5.213-4.999c0-1.003,0.363-1.824,1.12-2.557
	c0.868-0.814,2.01-1.21,3.493-1.21c1.543,0,2.989,0.504,4.42,1.541l1.671,1.21l3.202-4.819l-1.524-1.12
	c-2.18-1.601-4.737-2.413-7.601-2.413c-3.18,0-5.821,0.981-7.868,2.933c-1.93,1.884-2.909,4.22-2.909,6.942
	c0,4.262,2.943,7.593,8.733,9.896c5.419,2.208,5.419,4.769,5.419,5.61c0,1.342-0.512,2.37-1.597,3.223
	c-1.117,0.859-2.437,1.278-4.035,1.278c-1.717,0-3.56-0.617-5.478-1.834L9.6,110.756l-2.955,5.05l1.597,1.028
	c2.532,1.631,5.378,2.458,8.459,2.458c3.317,0,6.096-0.913,8.283-2.734c2.291-1.967,3.452-4.56,3.452-7.707
	c0-2.695-0.885-4.994-2.645-6.848C24.416,100.584,22.349,99.328,19.5,98.175z"/>
<path fill="#5FB349" d="M46.077,83.809c-4.377,0-8.122,1.591-11.136,4.734c-3.204,3.374-4.829,7.855-4.829,13.318
	c0,5.111,1.501,9.354,4.449,12.596c2.897,3.245,6.658,4.891,11.177,4.891c4.194,0,7.843-1.458,10.835-4.323
	c1.664-1.577,2.961-3.498,3.857-5.711c0.956-2.369,1.441-5.066,1.441-8.017c0-5.059-1.437-9.255-4.264-12.465
	C54.706,85.498,50.826,83.809,46.077,83.809z M52.815,110.424c-1.955,2.238-4.252,3.326-7.021,3.326
	c-2.627,0-4.835-1.145-6.757-3.509c-1.973-2.399-2.932-5.196-2.932-8.551c0-3.456,0.863-6.272,2.65-8.622
	c1.839-2.461,4.252-3.659,7.377-3.659c3.141,0,5.544,1.239,7.334,3.768c1.601,2.318,2.413,5.125,2.413,8.343
	C55.879,105.155,54.877,108.067,52.815,110.424z"/>
<path fill="#5FB349" d="M87.736,86.169c-1.219-0.9-2.603-1.558-4.208-1.979c-0.562-0.119-1.104-0.221-1.628-0.302l-0.118-0.015
	c-0.435-0.041-0.874-0.064-1.311-0.064c-3.525,0-6.498,1.018-8.887,3.035l-0.071-2.359h-5.972l0.154,2.125
	c0.146,2.013,0.22,4.26,0.22,6.681v25.378h5.938V97.799c0-2.031,0.757-3.867,2.308-5.607c1.654-1.834,3.571-2.727,5.86-2.727
	c2.433,0,4.114,0.814,5.29,2.562c1.086,1.617,1.637,3.863,1.637,6.676v19.967h5.936V98.535c0-2.979-0.495-5.587-1.472-7.755
	C90.556,88.896,89.321,87.346,87.736,86.169z"/>
<path fill="#5FB349" d="M111.82,83.809c-2.507,0-4.783,0.862-6.795,2.591c-0.774,0.694-1.457,1.48-2.045,2.352
	c-0.434-0.415-0.927-0.638-1.548-0.638l-0.922,0.039l-0.583,0.597c-0.64,0.656-0.708,1.519-0.689,2.28
	c0.037,1.413,0.054,2.862,0.054,4.347v23.293h5.939V99.773c0-3.002,0.682-5.531,2.033-7.527c1.203-1.802,2.581-2.652,4.332-2.669
	l0.729,0.043c0.228,0.047,0.429,0.07,0.621,0.07h1.982v-5.195l-1.401-0.43C112.969,83.896,112.395,83.809,111.82,83.809z"/>
<path fill="#5FB349" d="M117.109,118.67h5.937V84.484h-5.937V118.67z"/>
<path fill="#5FB349" d="M139.369,98.174c-3.46-1.458-5.214-3.14-5.214-4.998c0-1.003,0.364-1.823,1.121-2.558
	c0.867-0.813,2.009-1.209,3.493-1.209c1.542,0,2.988,0.504,4.419,1.541l1.671,1.209l3.205-4.818l-1.525-1.12
	c-2.182-1.601-4.739-2.413-7.6-2.413c-3.18,0-5.823,0.981-7.869,2.933c-1.931,1.884-2.91,4.22-2.91,6.942
	c0,4.261,2.944,7.592,8.734,9.896c5.419,2.208,5.419,4.769,5.419,5.61c0,1.342-0.512,2.37-1.594,3.223
	c-1.117,0.859-2.437,1.278-4.036,1.278c-1.718,0-3.561-0.617-5.479-1.834l-1.735-1.101l-2.953,5.051l1.596,1.027
	c2.534,1.631,5.38,2.458,8.459,2.458c3.321,0,6.1-0.914,8.282-2.734c2.291-1.967,3.453-4.56,3.453-7.707
	c0-2.697-0.885-4.996-2.644-6.848C144.285,100.584,142.218,99.328,139.369,98.174z"/>
<path fill="#5FB349" d="M190.339,98.175c-3.459-1.458-5.213-3.14-5.213-4.999c0-1.004,0.363-1.824,1.121-2.558
	c0.867-0.813,2.009-1.209,3.491-1.209c1.544,0,2.99,0.504,4.42,1.54l1.669,1.21l3.208-4.818l-1.526-1.12
	c-2.181-1.601-4.739-2.413-7.602-2.413c-3.179,0-5.821,0.981-7.867,2.933c-1.931,1.884-2.91,4.22-2.91,6.942
	c0,4.261,2.944,7.592,8.734,9.896c5.419,2.208,5.419,4.769,5.419,5.61c0,1.342-0.512,2.37-1.596,3.223
	c-1.117,0.859-2.437,1.278-4.034,1.278c-1.718,0-3.561-0.617-5.48-1.834l-1.735-1.101l-2.554,4.369
	c-0.297-0.86-1.011-1.814-2.278-3.08c-0.842-0.84-1.251-1.665-1.251-2.518V97.575c0-1.576-0.125-3.045-0.378-4.402
	c-0.345-1.674-0.898-3.167-1.675-4.49c-2.034-3.234-5.348-4.874-9.852-4.874c-1.485,0-3.009,0.214-4.579,0.648
	c-1.808,0.549-3.472,1.339-4.945,2.348l-1.47,1.007l2.706,5.019l1.831-1.312c1.928-1.382,3.984-2.053,6.287-2.053
	c1.491,0,2.706,0.293,3.566,0.842c0.754,0.512,1.322,1.202,1.727,2.091c0.367,0.83,0.617,1.828,0.735,2.883l0.071,1.055
	c-15.21,0.368-18.456,7.175-18.456,12.911c0,2.687,0.88,4.998,2.622,6.877c1.999,2.138,4.725,3.223,8.101,3.223
	c2.62,0,5.059-0.689,7.234-2.039c1.107-0.675,2.067-1.461,2.872-2.349c3.752,3,4.456,3.169,5.211,3.169
	c0.579,0,1.114-0.225,1.508-0.634l0.608-0.686l-0.024-0.637l1.027,0.662c2.532,1.631,5.378,2.458,8.459,2.458
	c3.319,0,6.098-0.914,8.282-2.734c2.291-1.967,3.453-4.56,3.453-7.707c0-2.695-0.884-4.993-2.644-6.848
	C195.256,100.584,193.189,99.328,190.339,98.175z M168.361,102.045v5.285c0,1.246-0.562,2.5-1.703,3.818
	c-0.695,0.786-1.487,1.387-2.408,1.832c-1.078,0.512-2.329,0.77-3.718,0.77c-1.317,0-2.383-0.374-3.229-1.117
	c-0.933-0.855-1.386-2.074-1.386-3.727c0-1.39,0.409-2.527,1.264-3.494c0.746-0.862,1.91-1.582,3.483-2.148
	c1.323-0.497,2.952-0.837,4.896-1.017C166.444,102.142,167.382,102.074,168.361,102.045z"/>
<path fill="#5FB349" d="M236.132,47.938c-1.131-1.947-2.952-3.335-5.128-3.911c-0.709-0.189-1.438-0.285-2.167-0.285
	c-3.811,0-7.154,2.576-8.131,6.264c-0.67,2.527-0.129,5.204,1.445,7.27c-5.759,6.949-16.282,11.083-28.289,11.083
	c-4.005,0.001-8.004-0.499-11.565-1.444c-10.746-2.854-20.611-10.944-25.746-21.111c-1.984-3.929-3.126-7.916-3.399-11.859
	c4.74-0.957,8.551-4.52,9.798-9.22c1.801-6.785-2.259-13.774-9.051-15.579c-1.07-0.284-2.169-0.427-3.267-0.427
	c-5.765,0-10.827,3.899-12.308,9.482c-1.483,5.602,0.959,11.417,5.951,14.289c0.056,5.787,1.539,11.601,4.408,17.287
	c5.386,10.668,15.283,19.662,26.475,24.058c1.602,0.627,3.243,1.166,4.878,1.601c3.822,1.014,7.825,1.528,11.897,1.528
	c14.465,0,27.347-6.235,34.574-16.705c0.06,0.018,0.12,0.035,0.181,0.051c0.709,0.188,1.438,0.283,2.165,0.283
	c3.812,0,7.158-2.578,8.136-6.267C237.565,52.151,237.261,49.883,236.132,47.938z"/>
</svg>
