<?xml version="1.0" standalone="no"?>
<!DOCTYPE svg PUBLIC "-//W3C//DTD SVG 1.1//EN" "http://www.w3.org/Graphics/SVG/1.1/DTD/svg11.dtd" >
<svg xmlns="http://www.w3.org/2000/svg">
<metadata>
This is a custom SVG webfont generated by Font Squirrel.
Copyright   : Copyright  2011 8YES DESIGN 
Designer    : Alvaro Thomaz
</metadata>
<defs>
<font id="Chapenettoer8THIN" horiz-adv-x="1095" vert-adv-y="2048" >
<font-face units-per-em="2048" ascent="1802" descent="-246" />
<missing-glyph horiz-adv-x="473" />
<glyph horiz-adv-x="473" />
<glyph horiz-adv-x="473" />
<glyph horiz-adv-x="473" />
<glyph horiz-adv-x="473" />
<glyph horiz-adv-x="473" />
<glyph horiz-adv-x="473" />
<glyph horiz-adv-x="473" />
<glyph horiz-adv-x="473" />
<glyph horiz-adv-x="473" />
<glyph horiz-adv-x="473" />
<glyph horiz-adv-x="473" />
<glyph horiz-adv-x="473" />
<glyph horiz-adv-x="473" />
<glyph horiz-adv-x="473" />
<glyph horiz-adv-x="473" />
<glyph horiz-adv-x="473" />
<glyph horiz-adv-x="473" />
<glyph horiz-adv-x="473" />
<glyph horiz-adv-x="473" />
<glyph unicode="&#xd;" horiz-adv-x="473" />
<glyph horiz-adv-x="473" />
<glyph horiz-adv-x="473" />
<glyph unicode="&#xa;" horiz-adv-x="473" />
<glyph unicode="&#x9;" horiz-adv-x="473" />
<glyph horiz-adv-x="473" />
<glyph horiz-adv-x="473" />
<glyph horiz-adv-x="473" />
<glyph horiz-adv-x="473" />
<glyph horiz-adv-x="473" />
<glyph horiz-adv-x="473" />
<glyph horiz-adv-x="473" />
<glyph horiz-adv-x="473" />
<glyph unicode=" "  horiz-adv-x="473" />
<glyph unicode="&#x09;" horiz-adv-x="473" />
<glyph unicode="&#xa0;" horiz-adv-x="473" />
<glyph unicode="!" horiz-adv-x="454" d="M152 53q0 92 75 92q74 0 74 -88q0 -82 -78 -82q-71 0 -71 78zM176 1546h98l-16 -1157h-65z" />
<glyph unicode="&#x22;" horiz-adv-x="655" d="M147 1587h103l-25 -487h-53zM406 1587h102l-25 -487h-53z" />
<glyph unicode="#" horiz-adv-x="1036" d="M84 496v63h199l51 416h-205v65h211l61 482h76l-59 -482h264l59 482h76l-57 -482h192v-65h-200l-50 -416h205v-61h-213l-59 -498h-78l59 498h-262l-59 -498h-78l59 496h-192zM360 559h265l47 416h-260z" />
<glyph unicode="$" d="M166 156l45 57q121 -104 293 -104q133 0 221 88q86 86 86 213q0 215 -266 344q-182 82 -262 166q-92 94 -93 227q0 137 91 229q86 90 225 109v246h74v-246q84 -2 159 -31q57 -20 109 -57l-47 -60l-37 25q-25 16 -53 29q-74 33 -160 32q-137 0 -217 -86q-70 -76 -70 -176 q0 -190 291 -327q166 -80 244 -168q88 -104 88 -250q0 -133 -84 -236q-92 -109 -246 -131v-246h-74v246q-186 1 -317 107z" />
<glyph unicode="%" horiz-adv-x="1638" d="M76 1053q0 211 90 340q86 123 219 123q158 0 236 -142q63 -115 63 -303q0 -229 -90 -352q-84 -115 -219 -115q-125 0 -205 105q-94 121 -94 344zM147 1059q0 -170 60 -281q63 -115 170 -114q119 0 178 118q55 106 55 285q0 174 -49 272q-59 117 -178 117 q-127 0 -190 -151q-25 -59 -35 -131q-11 -60 -11 -115zM332 -29l897 1549h76l-895 -1549h-78zM961 438q0 209 90 338q86 125 219 125q156 0 233 -141q63 -117 64 -303q0 -227 -90 -353q-84 -115 -217 -114q-125 0 -207 104q-92 121 -92 344zM1032 444q0 -168 60 -278 q63 -117 170 -117q117 0 178 119q53 106 53 285q0 172 -49 270q-57 117 -178 117q-127 0 -189 -152q-25 -55 -35 -129q-10 -60 -10 -115z" />
<glyph unicode="&#x26;" horiz-adv-x="1241" d="M72 406q0 150 88 272q76 104 217 186v6q-137 186 -137 342q0 147 88 250q94 109 243 109q119 0 197 -82q80 -82 80 -217q0 -246 -371 -424v-6l129 -152l355 -403q72 104 114 256q18 63 31 135q10 59 18 127h70q-12 -86 -23 -143q-16 -82 -34 -148q-49 -168 -133 -268 l239 -246h-98l-82 84l-102 102q-117 -117 -234 -166q-104 -45 -233 -45q-176 0 -299 123q-123 126 -123 308zM147 412q0 -162 103 -269q104 -109 264 -108q133 0 252 69q45 27 88 64q35 29 64 63l-349 400l-153 180q-47 -27 -86 -57q-51 -39 -88 -84q-95 -115 -95 -258z M313 1221q0 -92 41 -181q16 -37 41 -75q14 -25 45 -68q82 41 135 76q63 41 107 82q92 92 92 209q0 98 -49 166q-57 82 -168 81q-115 0 -182 -90q-62 -81 -62 -200z" />
<glyph unicode="'" horiz-adv-x="397" d="M147 1587h103l-25 -487h-53z" />
<glyph unicode="(" horiz-adv-x="589" d="M158 651q0 164 28 312q27 135 76 258q43 106 107 208q51 84 120 170h80q-162 -195 -241 -407q-92 -244 -92 -543q0 -287 96 -530q41 -109 104 -213q57 -94 133 -191h-80q-70 84 -120 168q-63 98 -107 205q-49 121 -76 254q-28 147 -28 309z" />
<glyph unicode=")" horiz-adv-x="589" d="M20 -285q76 96 134 191q63 104 104 215q96 246 96 538.5t-94 536.5q-43 109 -104 213q-57 94 -136 190h80q70 -84 123 -167q61 -100 107 -209q49 -121 76 -256q29 -147 28 -312q0 -162 -28 -309q-27 -133 -76 -254q-43 -106 -107 -207q-53 -84 -123 -170h-80z" />
<glyph unicode="*" horiz-adv-x="876" d="M68 1171v89l321 -17v4l-192 273l86 47l151 -289h6l146 293l86 -47l-197 -281v-4l332 21v-89l-330 23v-6l197 -268l-90 -52l-148 293h-6l-160 -295l-73 52l194 272v8z" />
<glyph unicode="+" horiz-adv-x="1368" d="M94 578v71h551v572h80v-572h551v-71h-551v-578h-80v578h-551z" />
<glyph unicode="," horiz-adv-x="366" d="M70 -291q74 190 110 461l111 23q-74 -322 -160 -476z" />
<glyph unicode="-" horiz-adv-x="673" d="M70 596v76h536v-76h-536z" />
<glyph unicode="." horiz-adv-x="366" d="M125 55q0 92 75.5 92t75.5 -88q0 -84 -77 -84q-74 0 -74 80z" />
<glyph unicode="/" horiz-adv-x="811" d="M-37 -92l768 1663h94l-774 -1663h-88z" />
<glyph unicode="0" d="M90 752q0 205 41 364q39 147 109 248q129 182 323.5 182t310.5 -178q131 -199 132 -584q0 -406 -132 -612q-121 -197 -342 -197q-129 0 -225 88q-80 74 -133 209q-45 113 -68 256q-16 115 -16 224zM164 770q0 -117 16 -231q20 -137 62 -240q47 -123 116 -188 q78 -76 185 -76q197 0 297 217q90 193 90 518q0 330 -90 516q-98 201 -287 201q-170 0 -281 -201q-108 -203 -108 -516z" />
<glyph unicode="1" d="M248 1327l297 195h69v-1522h-71v1444h-4l-265 -172z" />
<glyph unicode="2" d="M109 0v47l127 139q27 31 83 88l97 101l102 112q55 61 100 119q106 135 164 252q68 139 68 256q0 158 -70 254q-86 119 -268 119q-96 0 -188 -47q-66 -35 -177 -131l-34 49q209 188 413 188q109 0 191 -41q74 -35 123 -102q86 -113 86 -266q0 -215 -158 -445 q-74 -106 -193 -239l-124 -131l-142 -144l-104 -110v-5h813v-63h-909z" />
<glyph unicode="3" d="M104 78l41 59q53 -39 121 -65q94 -37 189 -37q113 0 196 41q72 35 121 98q41 53 62 125q18 59 18 117q0 188 -141 291q-125 90 -316 90h-88v61h94q147 0 261 80q131 94 131 250q0 125 -68 205q-78 94 -231 94q-82 0 -162 -35q-70 -31 -166 -119l-39 56q98 88 182 120 q96 37 189 37q190 0 288 -112q82 -94 82 -238q0 -252 -278 -360v-5q147 -31 239 -135q98 -113 99 -274q0 -184 -115 -305q-131 -141 -371 -142q-98 0 -198 33q-85 29 -140 70z" />
<glyph unicode="4" d="M18 463v49l752 1010h39v-996v-63v-463h-72v463h-719zM117 526h620v660q0 100 6 194l-6 2q-29 -51 -61 -100l-27 -41q0 -2 -6 -8l-18 -29l-508 -674v-4z" />
<glyph unicode="5" d="M94 78l39 59q14 -10 43 -24q37 -20 74 -35q106 -43 184 -43q170 0 287 123q117 125 117 305q0 182 -105 293q-115 119 -330 118q-125 0 -213 -18l99 666h684v-64h-621l-80 -532q10 0 25 2l31 4q41 4 86 4q195 0 334 -100q76 -57 118 -142q47 -92 47 -213 q0 -225 -145 -368q-137 -137 -336 -138q-102 0 -203 33q-82 29 -135 70z" />
<glyph unicode="6" d="M86 606q0 219 70 404q63 170 180 295q225 242 555 241v-69l-60 -2q-20 0 -38 -2q-45 -4 -88 -15q-223 -51 -377 -264q-143 -197 -164 -436h4q55 98 151 157q109 70 240 70q205 0 328 -137q119 -135 119 -348t-113 -361q-125 -164 -338 -164q-199 0 -328 158 q-141 172 -141 473zM162 592q0 -98 20 -193q23 -102 68 -178q109 -186 315 -186q164 0 264 131q100 129 101 330q0 205 -113 321q-104 109 -272 109q-143 0 -269 -121q-114 -111 -114 -213z" />
<glyph unicode="7" d="M102 1458l45 64h844v-58l-669 -1464h-89l682 1454v4h-813z" />
<glyph unicode="8" d="M94 377q0 293 330 432v10q-115 49 -186 135q-80 94 -80 207q0 176 125 285q115 100 282 100q174 0 281 -104q100 -98 100 -254q0 -111 -57 -201q-72 -109 -219 -176v-8q330 -127 329 -402q0 -188 -137 -311q-131 -115 -315 -115q-190 0 -320 113q-133 115 -133 289z M170 397q0 -160 111 -262q106 -100 264 -100q174 0 278 104q100 98 101 248q0 158 -105 254q-94 86 -303 145q-147 -47 -240 -141q-106 -109 -106 -248zM231 1180q0 -258 347 -346q135 49 208 131q82 90 82 217q0 119 -65 202q-84 102 -244 103q-137 0 -229 -80 q-99 -86 -99 -227z" />
<glyph unicode="9" d="M115 1012q0 223 125 374q131 160 340 160q186 0 305 -155q127 -170 127 -478q0 -430 -234 -696q-214 -246 -628 -246h-27l57 88q55 -8 111 -8t112 8q199 39 332 197q156 184 203 510l-4 -2q-154 -211 -399 -211q-199 0 -316 143q-104 130 -104 316zM190 1018 q0 -180 101 -293q98 -113 254 -113q84 0 164 33q68 31 122 82q109 96 109 174q0 111 -18 209q-23 109 -66 188q-98 188 -293 189q-166 0 -272 -139q-101 -133 -101 -330z" />
<glyph unicode=":" horiz-adv-x="366" d="M125 55q0 92 75.5 92t75.5 -88q0 -84 -77 -84q-74 0 -74 80zM125 926q0 92 75.5 92t75.5 -88q0 -86 -77 -86q-74 0 -74 82z" />
<glyph unicode=";" horiz-adv-x="366" d="M68 -291q74 180 112 461l111 23q-12 -57 -37 -136q-20 -70 -47 -145q-51 -152 -74 -195zM147 926q0 92 76 92t76 -88q0 -86 -76 -86t-76 82z" />
<glyph unicode="&#x3c;" horiz-adv-x="1368" d="M166 580v61l1032 580v-86l-946 -525v-4l946 -520v-86z" />
<glyph unicode="=" horiz-adv-x="1368" d="M92 371v71h1184v-71h-1184zM92 801v69h1184v-69h-1184z" />
<glyph unicode="&#x3e;" horiz-adv-x="1368" d="M168 0v88l944 518v4l-944 523v88l1032 -582v-59z" />
<glyph unicode="?" horiz-adv-x="851" d="M59 1419q176 154 342 154q160 0 252 -100q82 -88 82 -222q0 -96 -51 -194q-43 -82 -149 -211q-140 -178 -141 -358q0 -15 1 -29l4 -76h-67l-8 61q-2 16 -2 50q0 197 149 380q188 225 188 377q0 262 -268 262q-139 0 -299 -145zM289 59q0 88 75.5 88t75.5 -88 q0 -84 -75.5 -84t-75.5 84z" />
<glyph unicode="@" horiz-adv-x="1626" d="M82 473q0 371 223 623q231 266 598 266q293 0 471 -188q174 -182 174 -474q0 -250 -121 -405q-113 -143 -264 -143q-61 0 -102 43q-49 49 -49 137v20q0 10 2 21h-6q-135 -221 -353 -221q-96 0 -163 73q-74 80 -74 205q0 219 160 385q162 168 389 168q119 0 262 137 l-125 -585q-18 -92 -19 -154q0 -154 97 -154q106 0 186 127q86 133 86 324q0 276 -149 440q-152 168 -418 168q-303 0 -506 -223q-207 -229 -207 -584q0 -283 170 -465q168 -180 422 -180q205 0 360 94l33 -69q-166 -100 -399 -101q-287 0 -479 193q-199 200 -199 522z M498 426q0 -205 188 -205q119 0 229 131q96 115 123 242l64 295q-12 4 -27 8l-33 8q-45 8 -94 8q-184 0 -317 -145q-133 -143 -133 -342z" />
<glyph unicode="A" horiz-adv-x="1318" d="M72 0l573 1546h53l568 -1546h-72l-160 475h-723l-166 -475h-73zM334 537h678l-254 639q-57 160 -86 272h-4q-39 -137 -86 -268z" />
<glyph unicode="B" horiz-adv-x="1122" d="M193 2v1522q143 35 288 35q266 0 385 -121q51 -51 74 -123q20 -63 21 -139q0 -117 -78 -213q-74 -92 -191 -132v-8q51 -12 103 -37q61 -29 108 -71q53 -51 84 -119q35 -76 35 -168q0 -96 -33 -174q-27 -63 -76 -115q-137 -150 -471 -149q-70 0 -143 4zM264 854h244 q168 0 274 94q102 90 103 228v2q0 166 -119 245q-106 74 -299 74q-70 0 -127 -6l-76 -14v-623zM264 66q61 -16 199 -17q209 0 334 82q150 96 149 291q0 186 -145 287q-129 86 -330 86h-207v-729z" />
<glyph unicode="C" horiz-adv-x="1298" d="M88 766q0 350 201 571q213 233 575 234q129 0 234 -25q39 -10 71 -22q14 -4 29 -11q10 -4 21 -10l-29 -59q-135 70 -320 69q-328 0 -518 -204q-188 -203 -188 -549q0 -330 180 -524q182 -199 500 -199q209 0 356 76l29 -56q-66 -35 -170 -55q-119 -25 -252 -25 q-297 0 -492 183q-109 100 -163 243q-64 160 -64 363z" />
<glyph unicode="D" horiz-adv-x="1466" d="M193 0v1526q53 8 90 12l92 10q106 10 200 11q377 0 584 -183q221 -193 221 -565q0 -260 -96 -440q-82 -156 -231 -248q-121 -76 -281 -109q-66 -14 -133 -20q-57 -4 -115 -4h-82q-45 0 -82 2q-91 2 -167 8zM264 63q90 -16 260 -16q383 0 588 209q193 199 193 551 q0 328 -181 506q-190 186 -561 186q-86 0 -170 -8q-66 -8 -129 -21v-1407z" />
<glyph unicode="E" horiz-adv-x="1042" d="M193 0v1546h733v-63h-662v-635h422v-64h-422v-721h699v-63h-770z" />
<glyph unicode="F" horiz-adv-x="1034" d="M193 0v1546h735v-63h-664v-652h457v-63h-457v-768h-71z" />
<glyph unicode="G" horiz-adv-x="1409" d="M88 770q0 336 197 553q102 115 247 174q156 66 351 66q106 0 213 -25q80 -18 135 -43l-29 -57q-72 33 -137 47q-86 20 -186 20q-330 0 -525 -207q-190 -201 -190 -528q0 -307 172 -508q186 -219 516 -219q123 0 215 18q76 16 131 45v271l76 63v-372l-70 -27 q-47 -14 -98 -27q-131 -31 -272 -30q-352 0 -551 219q-195 211 -195 567z" />
<glyph unicode="H" horiz-adv-x="1423" d="M193 0v1546l71 -78v-614h895v692h72v-1546h-72v793h-895v-793h-71z" />
<glyph unicode="I" horiz-adv-x="458" d="M193 0v1546h71v-1546h-71z" />
<glyph unicode="J" horiz-adv-x="770" d="M23 10l18 62q35 -16 70 -25q45 -12 92 -12q180 0 256 133q63 109 63 328v970l72 80v-1081q0 -268 -121 -389q-100 -100 -274 -101q-115 0 -176 35z" />
<glyph unicode="K" horiz-adv-x="1099" d="M193 0v1546h71v-798h8q31 39 70 81l16 19q6 8 17 18q4 2 8 8l606 672h86l-686 -764l825 -792h-90l-782 745l-78 -73v-662h-71z" />
<glyph unicode="L" horiz-adv-x="1005" d="M193 0v1546l71 -43v-1440h701v-63h-772z" />
<glyph unicode="M" horiz-adv-x="1759" d="M147 0l113 1546h76l352 -827l78 -176q55 -152 102 -219h4q51 88 113 213l467 1024l57 -15l105 -1546h-72l-72 1143q-11 172 -10 272v31h-6l-111 -258l-120 -314l-334 -686h-47l-350 775q-16 49 -31 86l-55 153q-57 131 -91 244h-6q-4 -145 -12 -324q-10 -203 -25 -391 l-51 -731h-74z" />
<glyph unicode="N" horiz-adv-x="1443" d="M193 0v1546h67l731 -1104l76 -120q74 -119 123 -218l4 5q-10 139 -12 294q-2 66 -2 154v989h71v-1546h-71l-676 1028l-111 172q-84 133 -135 234l-6 -2q12 -162 12 -601v-831h-71z" />
<glyph unicode="O" horiz-adv-x="1521" d="M88 758q0 377 199 600q190 213 485 213q293 0 477 -211q186 -215 187 -572q0 -199 -58 -360q-55 -147 -153 -252q-190 -201 -469 -201q-287 0 -471 207q-197 218 -197 576zM164 760q0 -274 151 -486q80 -113 187 -172q117 -68 256 -67q276 0 446 225q156 211 156 522 q0 285 -141 490q-76 113 -183 172q-119 68 -266 67q-150 0 -270 -65q-111 -61 -189 -174q-147 -209 -147 -512z" />
<glyph unicode="P" horiz-adv-x="1099" d="M193 0v1528q72 14 141 22q84 8 166 9q260 0 395 -129q117 -113 117 -297q0 -233 -164 -361q-150 -115 -385 -115q-109 0 -199 21v-678h-71zM264 741q76 -25 203 -24q469 0 469 403q0 193 -131 291q-119 88 -316 88q-68 0 -135 -8q-27 -2 -51 -8q-10 0 -20 -2l-19 -4v-736 z" />
<glyph unicode="Q" horiz-adv-x="1521" d="M88 756q0 377 199 602q188 213 487 213q291 0 473 -209q188 -215 189 -574q0 -317 -140 -524q-131 -193 -366 -264v-8q541 -213 667 -240l-118 -53l-668 268q-23 8 -39 8q-299 4 -485 207q-199 212 -199 574zM164 756q0 -295 162 -502q170 -219 430 -219q281 0 448 225 q156 209 156 522q0 283 -141 490q-76 111 -181 172q-117 68 -262 67q-154 0 -274 -65q-113 -61 -191 -172q-147 -209 -147 -518z" />
<glyph unicode="R" horiz-adv-x="1126" d="M193 0v1526q147 33 313 33q276 0 401 -132q104 -100 105 -270q0 -299 -307 -403v-4q186 -57 268 -404q70 -332 114 -416h-75q-35 61 -101 381q-100 416 -385 416h-262v-727h-71zM264 786h254q186 0 301 99q117 98 117 258q0 190 -135 280q-113 76 -305 76q-72 0 -142 -10 q-51 -6 -90 -16v-687z" />
<glyph unicode="S" horiz-adv-x="1036" d="M96 82l37 57q150 -102 328 -102q180 0 289 100q102 96 102 248q0 258 -315 381q-195 70 -291 166q-104 106 -105 258q0 166 123 274q121 106 307 107q98 0 183 -25q72 -20 112 -51l-37 -57q-37 29 -94 49q-76 25 -164 24q-180 0 -276 -102q-80 -84 -80 -201 q0 -240 324 -368q203 -82 288 -174q100 -106 101 -273q0 -176 -119 -291q-129 -125 -352 -125q-220 1 -361 105z" />
<glyph unicode="T" horiz-adv-x="1038" d="M-33 1483v63h1065l41 -63h-516v-1483h-72v1483h-518z" />
<glyph unicode="U" horiz-adv-x="1415" d="M193 594v952h71v-934q0 -293 127 -442q115 -135 305 -135q209 0 328 139q127 152 127 438v934h72v-932q0 -172 -45 -301q-41 -119 -117 -196q-139 -141 -371 -142q-213 0 -342 134q-74 76 -112 190q-43 125 -43 295z" />
<glyph unicode="V" horiz-adv-x="1122" d="M-6 1546h80l393 -1177q49 -158 80 -273h4q33 119 88 279l53 151l383 1020h80l-580 -1546h-65z" />
<glyph unicode="W" horiz-adv-x="1857" d="M29 1546h80l315 -1190l57 -237h4q18 92 60 235l356 1192h78l313 -1175q39 -156 56 -256h6q25 113 63 250l37 131q10 29 21 69q8 23 22 72l275 909h83l-473 -1546h-69l-293 1083l-35 138q-31 129 -47 229h-4q-18 -100 -53 -223l-88 -299l-283 -928h-68z" />
<glyph unicode="X" horiz-adv-x="1226" d="M70 0l497 786l-477 760h94l312 -510l41 -63l73 -121h4l76 121l92 137l281 436h94l-504 -753l506 -793h-92l-250 397q-137 205 -209 322h-6l-82 -137q-45 -76 -119 -189l-237 -393h-94z" />
<glyph unicode="Y" horiz-adv-x="1118" d="M33 1546l123 -39l327 -606l84 -164h6q31 63 86 162q6 8 13 21l364 626h92l-528 -876v-670h-72v676z" />
<glyph unicode="Z" horiz-adv-x="1222" d="M82 0v55l954 1422v6h-874v63h973v-53l-959 -1421v-9h971v-63h-1065z" />
<glyph unicode="[" horiz-adv-x="587" d="M211 -256v1829h379v-64h-301v-1702h301v-63h-379z" />
<glyph unicode="\" horiz-adv-x="804" d="M-16 1571h90l766 -1663h-90z" />
<glyph unicode="]" horiz-adv-x="587" d="M-2 -193h301v1702h-301v64h379v-1829h-379v63z" />
<glyph unicode="^" horiz-adv-x="1368" d="M176 457l465 1034h86l467 -1034h-84l-424 952h-4l-424 -952h-82z" />
<glyph unicode="_" horiz-adv-x="1146" d="M0 -154h1147v-102h-1147v102z" />
<glyph unicode="&#x332;" horiz-adv-x="1146" d="M0 -154h1147v-102h-1147v102z" />
<glyph unicode="`" horiz-adv-x="688" d="M86 1575h135l203 -313h-59z" />
<glyph unicode="&#x300;" horiz-adv-x="688" d="M86 1575h135l203 -313h-59z" />
<glyph unicode="a" horiz-adv-x="1017" d="M94 270q0 397 646 398h26v53l-4 61q-8 74 -33 129q-31 68 -88 107q-68 43 -170 43q-147 0 -270 -88l-29 53q72 49 160 76q74 20 145 20q207 0 297 -143q35 -59 51 -139q12 -66 13 -146v-434q0 -76 66 -142q68 -68 68 -95q0 -4 -4 -3q-24 0 -202 146q-45 -76 -129 -127 q-102 -63 -225 -64q-154 0 -242 95q-76 81 -76 200zM168 283q0 -121 74 -189q68 -59 166 -59q92 0 165 35q63 31 111 84q80 92 80 186v264q-16 0 -32 1q-80 0 -150 -9q-113 -10 -195 -41q-102 -37 -156 -98q-63 -72 -63 -174z" />
<glyph unicode="b" horiz-adv-x="1251" d="M184 0q4 53 6 125q2 59 3 119v1384h71v-749h4q57 111 156 174q111 70 256 69q211 0 342 -157q131 -156 131 -404q0 -143 -43 -260q-41 -106 -113 -182q-137 -143 -331 -144q-268 0 -402 232h-6l-6 -207h-68zM264 424q0 -141 107 -260q119 -129 288 -129q195 0 310 149 q111 143 110 375q0 209 -104 350q-115 152 -303 152q-180 0 -301 -148q-106 -129 -107 -270v-219z" />
<glyph unicode="c" horiz-adv-x="1024" d="M98 537q0 262 160 426q156 160 395 159q76 0 156 -20q88 -23 135 -60l-33 -53l-45 25q-29 14 -57 24q-76 25 -158 25q-223 0 -356 -158q-123 -145 -123 -360q0 -225 129 -367q127 -141 328 -141q90 0 172 26q29 8 61 23l49 23l29 -54q-10 -6 -20 -10l-27 -12 q-35 -14 -70 -25q-100 -31 -207 -31q-231 0 -374 158q-144 156 -144 402z" />
<glyph unicode="d" horiz-adv-x="1230" d="M100 536q0 263 146 427q139 160 350 159q109 0 211 -55q109 -57 156 -149h6v710h71l11 -1632l-72 6l-2 217h-6q-109 -244 -398 -244q-205 0 -337 154q-136 158 -136 407zM174 539q0 -203 105 -346q117 -158 307 -158q168 0 280 135q102 123 103 270v226q0 170 -107 284 q-109 113 -268 113q-186 0 -305 -148q-115 -147 -115 -376z" />
<glyph unicode="e" horiz-adv-x="1097" d="M96 528q0 276 142 441q133 154 342 153q117 0 202 -47q78 -43 129 -123q45 -72 66 -166q20 -82 20 -229v-18q0 -10 -2 -17h-825q-4 -485 436 -485q109 0 193 24q31 8 63 23q16 6 49 22l25 -55q-6 -4 -14 -8q-12 -6 -25 -10q-31 -14 -68 -25q-47 -14 -100 -22 q-63 -8 -133 -9q-227 0 -365 156q-135 151 -135 395zM178 586h740q0 111 -13 174q-16 78 -49 139q-41 76 -106 117q-76 49 -179 49q-174 0 -284 -143q-91 -117 -109 -336z" />
<glyph unicode="f" horiz-adv-x="575" d="M193 0v1034v64v63q0 281 118 400q92 94 387 94q98 0 162 -43l-33 -53q-31 16 -57 24q-37 12 -84 12q-305 0 -373 -151q-27 -59 -39 -141q-10 -66 -10 -142v-63h459v-64h-459v-1034h-71z" />
<glyph unicode="g" horiz-adv-x="1232" d="M96 537q0 279 156 440q139 145 336 145q154 0 262 -75q82 -59 121 -146h4q75 -157 74 -488q0 -115 -9 -251q0 -205 -43 -334q-35 -109 -106 -178q-72 -66 -172 -101q-88 -29 -187 -28q-201 0 -342 98l35 55q139 -94 320 -94q424 0 424 488v159h-6q-47 -98 -140 -159 q-111 -74 -254 -74q-205 0 -340 162q-133 156 -133 381zM170 551q0 -219 117 -358q119 -139 301 -140q158 0 272 129q109 121 109 271v227q0 74 -13 111q-41 117 -127 188q-98 84 -233 84q-190 0 -311 -156q-115 -147 -115 -356z" />
<glyph unicode="h" horiz-adv-x="1212" d="M193 0v1628h71v-737h4q72 129 242 203q49 23 100 34q43 8 84 9q23 0 45 -2q29 -4 56 -11q72 -16 127 -57q68 -51 106 -137q45 -102 45 -250v-666h-72v658q0 172 -69 278q-84 125 -250 125q-143 0 -301 -129q-117 -117 -117 -274v-672h-71z" />
<glyph unicode="i" horiz-adv-x="456" d="M156 1413q0 82 73 82q72 0 72 -82t-74 -82q-71 0 -71 82zM193 0v1098h71v-1098h-71z" />
<glyph unicode="j" horiz-adv-x="462" d="M-186 -430q211 14 346 186q27 66 35 172q4 45 6 103v1067h71v-1030q0 -160 -20 -248q-25 -106 -90 -182q-51 -55 -209 -99q-70 -25 -127 -26zM201 1411l2 100l67 -16l4 -117l-2 -94l-67 -12z" />
<glyph unicode="k" horiz-adv-x="927" d="M193 0v1628h71v-1073h4l523 543h92l-561 -594l624 -504h-90l-584 459l-8 18v-477h-71z" />
<glyph unicode="l" horiz-adv-x="454" d="M193 0v1628h71v-1628h-71z" />
<glyph unicode="m" horiz-adv-x="1861" d="M184 1098h70l6 -203h4q59 109 142 166q92 61 221 61q240 0 315 -250h4q18 43 43 78q33 47 74 82q106 90 264 90q47 0 94 -14q66 -18 117 -61q66 -55 100 -144q43 -106 43 -256v-647h-71v639q0 422 -305 422q-131 0 -234 -113q-98 -109 -98 -237v-711h-72v692 q0 162 -74 262q-78 106 -215 107q-141 0 -247 -125q-100 -119 -101 -256v-680h-71v850q-1 135 -9 248z" />
<glyph unicode="n" horiz-adv-x="1212" d="M184 1098h70l6 -205h4q127 229 385 229q20 0 41 -2q27 -4 55 -10q70 -18 125 -59q72 -53 111 -140q47 -104 47 -252v-659h-72v653q0 176 -71 283q-84 125 -252 125q-156 0 -266 -123q-102 -115 -103 -252v-686h-71v850q-1 135 -9 248z" />
<glyph unicode="o" horiz-adv-x="1204" d="M96 539q0 270 156 434q143 150 352 149q227 0 365 -157q137 -156 137 -406q0 -147 -47 -264q-43 -106 -123 -182q-143 -137 -344 -138q-215 0 -352 154q-144 158 -144 410zM170 545q0 -207 123 -357q125 -154 301 -153q182 0 309 145q129 147 129 371q0 199 -100 344 q-119 168 -326 168q-205 0 -325 -162q-111 -145 -111 -356z" />
<glyph unicode="p" horiz-adv-x="1251" d="M190 -455q-7 283 -7 506q0 744 79 828q66 117 182 182q109 61 234 61q213 0 346 -157q129 -156 129 -398q0 -283 -152 -444q-137 -147 -348 -148q-260 0 -387 218h-4v-648h-72zM262 432q0 -170 125 -287q119 -111 270 -110q195 0 312 151q111 145 110 377q0 213 -108 355 q-113 145 -299 145q-178 0 -301 -143q-109 -127 -109 -273v-215z" />
<glyph unicode="q" horiz-adv-x="1226" d="M96 528q0 154 45 273q41 109 117 184q139 137 340 137q141 0 250 -75q86 -63 125 -154h4q63 -86 63 -656q0 -285 -16 -692h-57v658h-6q-45 -94 -140 -156q-109 -72 -250 -72q-205 0 -340 156q-135 157 -135 397zM170 541q0 -215 113 -359q117 -147 301 -147q90 0 166 41 q68 37 120 102q96 123 97 250v238q0 168 -106.5 282.5t-266.5 114.5q-186 0 -303 -141q-121 -143 -121 -381z" />
<glyph unicode="r" horiz-adv-x="647" d="M190 939q0 27 8 27q15 0 58 -98h6q37 109 115 179q88 76 198 75q20 0 41 -6v-63q-4 0 -12 2l-35 2q-133 0 -219 -129q-86 -127 -86 -314v-614h-71v774q0 29 -1.5 83.5t-1.5 81.5z" />
<glyph unicode="s" horiz-adv-x="833" d="M102 55l35 60q123 -78 238 -78q111 0 190 61q86 68 86 174q0 172 -241 271q-272 109 -273 293q0 119 84 200q90 86 236 86q133 0 233 -73l-37 -56q-96 70 -202 70q-109 0 -177 -64q-63 -61 -63 -145q0 -150 233 -248q141 -57 205 -123q76 -80 76 -198q0 -139 -100 -226 q-98 -82 -254 -82q-148 0 -269 78z" />
<glyph unicode="t" horiz-adv-x="690" d="M233 303v731v64v200l72 33v-233h324v-64h-324v-755q0 -242 172 -242q39 0 72 6q14 2 26 6l23 8l16 -53q-66 -27 -141 -27q-147 0 -203 115q-23 43 -30 107q-7 43 -7 104z" />
<glyph unicode="u" horiz-adv-x="1200" d="M182 459v639h72v-617q0 -446 315 -446q143 0 254 115q113 115 113 266v682h72v-844q0 -141 8 -254h-68l-8 201h-4q-49 -92 -135 -152q-104 -74 -242 -74q-59 0 -113 17q-70 20 -122 65q-66 55 -101 146q-41 106 -41 256z" />
<glyph unicode="v" horiz-adv-x="1003" d="M29 1098h86l297 -770q4 -12 8 -19l29 -73q31 -78 51 -140h4l53 140l31 73q10 27 33 78l278 711h80l-451 -1098h-61z" />
<glyph unicode="w" horiz-adv-x="1617" d="M35 1098h84l252 -834l45 -158h4q20 68 51 156l295 836h82l227 -649q66 -186 109 -343h8q16 66 45 156q10 37 27 88l241 748h84l-377 -1098h-59l-289 836q-29 94 -53 184h-6q-23 -84 -60 -186q-12 -37 -32 -91l-37 -96l-234 -647h-61z" />
<glyph unicode="x" horiz-adv-x="946" d="M29 0l405 561l-381 537h88l234 -332l31 -47q35 -49 63 -96h4q25 41 66 96l266 379h86l-385 -537l401 -561h-88l-207 293l-143 209h-4l-68 -105l-51 -69l-227 -328h-90z" />
<glyph unicode="y" horiz-adv-x="980" d="M-74 -500q223 92 310 176q70 68 124 160q39 66 66 137q6 12 10 25l10 37q0 6 -4 18l-419 1045h81l306 -756l86 -231h4l374 987h80l-340 -834q-162 -410 -268 -553q-55 -76 -123 -127q-55 -41 -270 -141z" />
<glyph unicode="z" horiz-adv-x="899" d="M35 0v47l686 907l61 76v4h-696v64h782v-56l-628 -831l-113 -143v-5h741v-63h-833z" />
<glyph unicode="{" horiz-adv-x="589" d="M57 690h7q109 0 155 62q35 45 35 133q0 84 -21 192l-14 103q-8 57 -8 100q0 145 92 223q86 70 227 70h19v-62h-37l-41 -4q-51 -6 -86 -24q-96 -53 -96 -205q0 -43 6 -98l20 -129q0 -8 2 -13l5 -24q2 -12 2 -23q8 -55 8 -94q0 -186 -139 -233v-5q139 -31 139 -235 q0 -41 -6 -92q-2 -23 -7 -47l-24 -146q-6 -51 -6 -98q0 -154 98 -207q37 -18 86 -24l41 -5h35v-61q-164 0 -246 72q-92 78 -92 243q0 43 6 99l6 49l25 141q6 51 6 94q0 80 -35 125q-46 64 -153 64h-7z" />
<glyph unicode="|" horiz-adv-x="460" d="M193 -573v2293h75v-2293h-75z" />
<glyph unicode="}" horiz-adv-x="589" d="M41 -195h37l41 5q51 6 86 24q98 53 98 207q0 84 -24 197q-23 113 -23 186q0 201 139 235v5q-139 47 -139 233q0 80 25 188q23 113 22 193q0 152 -96 205q-37 18 -86 24l-43 4h-37v62h20q141 0 228 -70q92 -78 92 -223q0 -45 -8 -100q-4 -35 -17 -103q-12 -59 -16 -96 q-6 -51 -6 -96q0 -88 35 -133q46 -62 154 -62h7v-59h-7q-105 0 -152 -60q-37 -49 -37 -129t24 -188l17 -96q6 -53 6 -99q0 -168 -92 -245q-84 -70 -248 -70v61z" />
<glyph unicode="~" horiz-adv-x="1368" d="M129 520q-1 12 -1 24q0 103 65 173q68 76 169 76q98 0 330 -99l92 -39q49 -18 86 -30q92 -31 164 -31q152 0 152 184v15h63q1 -14 1 -27q0 -115 -64 -180q-63 -61 -162 -62q-59 0 -127 17q-84 20 -215 73l-84 37q-49 23 -82 35q-90 33 -160 33q-164 0 -159 -199h-68z" />
<glyph unicode="&#x223c;" horiz-adv-x="1368" d="M129 520q-1 12 -1 24q0 103 65 173q68 76 169 76q98 0 330 -99l92 -39q49 -18 86 -30q92 -31 164 -31q152 0 152 184v15h63q1 -14 1 -27q0 -115 -64 -180q-63 -61 -162 -62q-59 0 -127 17q-84 20 -215 73l-84 37q-49 23 -82 35q-90 33 -160 33q-164 0 -159 -199h-68z" />
<glyph unicode="&#xa1;" horiz-adv-x="452" d="M152 1024q4 86 75 86q74 0 74 -86q0 -84 -76 -84q-73 0 -73 84zM178 -453l17 1147h63l16 -1147h-96z" />
<glyph unicode="&#xa2;" d="M137 758q0 238 129 395q127 154 326 178v244h74v-244q86 0 170 -26q63 -18 108 -48l-37 -61l-41 25q-29 12 -57 22q-78 27 -170 27q-190 0 -311 -154q-115 -145 -115 -354q0 -221 117 -359q115 -135 295 -135q96 0 178 27q31 10 59 27l47 24l29 -53q-39 -27 -102 -49 q-84 -31 -170 -35v-248h-74v248q-223 18 -342 172q-113 144 -113 377z" />
<glyph unicode="&#xa3;" d="M137 0v49q264 158 264 471q0 104 -14 228h-246v63h242l-23 141q-12 92 -12 166q0 195 109 314q104 115 264 114q80 0 143 -18q47 -14 90 -41l-30 -55q-39 23 -78 36q-59 18 -129 19q-137 0 -215 -101q-76 -98 -76 -258q0 -90 10 -174q6 -61 21 -143h338v-63h-330 q6 -66 8 -103q4 -57 4 -102q0 -86 -12 -144q-49 -213 -207 -329v-7h752v-63h-873z" />
<glyph unicode="&#xa4;" d="M86 332l141 147q-92 111 -92 281q0 166 101 299l-150 149l57 62l144 -158q104 104 262 105q164 0 260 -105l152 158l57 -60l-160 -151q88 -117 88 -281q0 -84 -24 -168q-23 -72 -58 -121l148 -157l-58 -60l-145 158q-102 -104 -270 -104q-166 0 -256 94l-142 -148z M213 764q0 -180 113 -287q92 -90 211 -90q131 0 223 88q109 104 108 301q0 152 -86 260q-94 119 -241 119q-154 0 -244 -123q-84 -110 -84 -268z" />
<glyph unicode="&#xa5;" d="M63 1522h87l296 -578q47 -92 86 -178h7q12 33 41 88l366 668h86l-430 -750h318v-63h-355v-197h355v-63h-355v-449h-71v449h-351v63h351v197h-351v63h320z" />
<glyph unicode="&#xa6;" horiz-adv-x="460" d="M190 399h76v-802h-76v802zM190 743v803h76v-803h-76z" />
<glyph unicode="&#xa7;" horiz-adv-x="2048" d="M592 844q0 53 31 117q37 74 106 137q-74 49 -74 162q0 135 105 223q109 90 282 90q117 0 224 -37q78 -29 133 -70l-47 -63q-47 39 -129 70q-106 39 -213 38q-119 0 -207 -75q-80 -70 -80 -150q0 -109 111 -172q47 -27 116 -49q53 -18 140 -39q365 -86 364 -307 q0 -178 -119 -287q74 -63 74 -194q0 -135 -106 -234q-117 -106 -310 -106q-127 0 -215 28q-80 27 -131 76l49 59q43 -43 109 -69q84 -33 201 -33q156 0 249 80q88 76 88 190q0 100 -71 160q-78 63 -299 129q-213 61 -297 135q-84 72 -84 191zM664 840q0 -76 49 -121 q70 -66 280 -133q139 -45 213 -76q53 -23 86 -43q90 90 90 227q0 182 -315 267q-98 25 -160 45q-82 27 -131 55q-70 -66 -96 -131q-10 -25 -14 -51z" />
<glyph unicode="&#xa8;" horiz-adv-x="2048" d="M739 1747q0 86 80 86q78 0 78 -86q0 -84 -82 -84q-76 0 -76 84zM1149 1747q0 86 78 86t78 -86q0 -84 -82 -84q-74 0 -74 84z" />
<glyph unicode="&#xa9;" horiz-adv-x="1552" d="M90 780q0 293 201 500q201 205 491 205q287 0 486 -207q195 -205 194 -498q0 -297 -196 -501q-197 -207 -486 -207q-291 0 -489 204q-201 205 -201 504zM174 770.5q0 -278.5 182 -461.5q174 -176 424 -176h6q252 0 422 184q172 184 172 463q0 268 -168 453 q-170 188 -432 188t-434 -186t-172 -464.5zM403 766q0 190 129 311q121 115 299 115q86 0 164 -21q63 -16 92 -38l-20 -62l-33 16q-25 12 -49 19q-68 23 -143 22q-176 0 -271 -106q-86 -96 -86 -249.5t88 -250.5q96 -104 271 -104q135 0 237 65l21 -57q-51 -35 -139 -57 q-78 -18 -140 -19q-193 0 -309 121q-111 117 -111 295z" />
<glyph unicode="&#xaa;" horiz-adv-x="731" d="M76 813q0 121 117 191q110 65 296 64q26 0 54 -1q0 94 -37 150q-49 72 -160 71q-104 0 -184 -65l-27 55q51 41 115 61q53 16 106 17q147 0 209 -101q49 -78 49 -223v-244q0 -80 13 -178h-70l-8 115h-6q-33 -51 -88 -84q-68 -43 -148 -43q-231 0 -231 215zM158 813 q0 -147 157 -147q94 0 166 67q59 57 60 103v165q-18 1 -35 1q-51 0 -94 -5q-72 -6 -123 -24q-131 -45 -131 -160z" />
<glyph unicode="&#xab;" horiz-adv-x="872" d="M70 578l336 409h94l-336 -409l336 -410h-94zM385 578l336 409h94l-336 -409l338 -410h-94z" />
<glyph unicode="&#xac;" horiz-adv-x="1368" d="M92 797v71h1184v-561h-80v490h-1104z" />
<glyph unicode="&#xad;" horiz-adv-x="1368" d="M92 578v71h1184v-71h-1184z" />
<glyph unicode="&#xae;" horiz-adv-x="882" d="M76 1204.5q0 155.5 110 259.5q106 100 260 101q152 0 256.5 -104.5t104.5 -256.5q0 -156 -105 -260q-104 -106 -258 -106q-156 0 -262 106q-106 105 -106 260.5zM147 1204q0 -129 89 -219q86 -88 210 -88q121 0 205 90q82 88 82 213q0 129 -82 217q-84 90 -211 90 q-123 0 -209 -90q-84 -88 -84 -213zM309 999v385l62 9q35 4 67 4q86 0 125 -41q29 -31 29 -70q0 -66 -72 -92v-6q47 -16 62 -90q16 -80 28 -99h-63q-14 16 -33 105q-12 63 -141 63v-168h-64zM373 1214q37 0 53 3q31 0 51 6q51 14 51 59q0 66 -96 66q-20 0 -37 -2 q-10 0 -22 -3v-129z" />
<glyph unicode="&#xaf;" horiz-adv-x="688" d="M113 1354v76h467v-76h-467z" />
<glyph unicode="&#x304;" horiz-adv-x="688" d="M113 1354v76h467v-76h-467z" />
<glyph unicode="&#xb0;" horiz-adv-x="2048" d="M170 1368.5q0 104.5 76 179.5q74 74 178 74q106 0 180 -76t74 -178q0 -104 -74 -178q-76 -76 -180.5 -76t-177.5 76q-76 74 -76 178.5zM231 1368q0 -80 58 -135q55 -57 135 -57t137 57q55 55 55 135t-55 137q-57 55 -137 56q-82 0 -137.5 -57.5t-55.5 -135.5z" />
<glyph unicode="&#xb1;" horiz-adv-x="2048" d="M262 55v74h1524v-74h-1524zM262 950v74h725v608h74v-608h725v-74h-725v-608h-74v608h-725z" />
<glyph unicode="&#xb2;" horiz-adv-x="630" d="M25 1061l147 139q305 289 305 457q0 88 -47 141q-55 61 -160 62q-57 0 -112 -27q-23 -12 -43 -27q-16 -10 -33 -24l-31 43q92 96 234 96q139 0 211 -86q55 -68 55 -156q0 -129 -92 -258q-41 -59 -107 -127q-57 -57 -141 -131l-86 -80v-6h440v-61h-540v45z" />
<glyph unicode="&#xb3;" horiz-adv-x="614" d="M18 1067l33 57q10 -8 31 -18q20 -12 47 -21q70 -20 125 -20q119 0 182 68q51 53 51 127q0 135 -131 182q-47 18 -112 22l-51 4h-43v60h61q82 0 151 43q84 53 87 145q0 55 -39 96q-47 47 -129 48q-55 0 -111 -23q-41 -18 -68 -43l-34 55q41 31 88 49q63 25 125 25 q123 0 186 -65q53 -57 53 -142q0 -147 -164 -209v-6q203 -37 203 -231q0 -106 -76 -180q-88 -86 -239 -86q-142 0 -226 63z" />
<glyph unicode="&#xb4;" horiz-adv-x="2048" d="M952 1628l224 264h143l-309 -264h-58z" />
<glyph unicode="&#xb5;" horiz-adv-x="1206" d="M193 -43v1141h71v-678q0 -164 76 -266q86 -117 248 -117q145 0 252 113q104 111 104 260v688h72v-844q0 -211 112 -215l-12 -64q-12 -1 -22 -1q-54 0 -88 34q-55 53 -58 180h-8q-53 -88 -133 -143q-98 -70 -221 -70q-238 0 -318 168v-276l4 -119q6 -139 23 -203h-68 q-18 59 -26 166q-8 96 -8 246z" />
<glyph unicode="&#xb6;" horiz-adv-x="2048" d="M506 1044q0 94 29 177q31 94 98 161q76 78 192 119q131 45 312 45q92 0 151 -4q49 -4 84 -10v-1651h-72v1596h-182v-1596h-71v711q-242 0 -392 127q-149 124 -149 325z" />
<glyph unicode="&#xb7;" horiz-adv-x="366" d="M109 610q0 86 75.5 86t75.5 -86q0 -84 -80 -84q-71 0 -71 84z" />
<glyph unicode="&#x2219;" horiz-adv-x="366" d="M109 610q0 86 75.5 86t75.5 -86q0 -84 -80 -84q-71 0 -71 84z" />
<glyph unicode="&#xb8;" horiz-adv-x="688" d="M141 -418l25 68q61 -31 121 -31q113 0 112 88q0 94 -176 109l115 186h74l-86 -131q154 -20 153 -152q0 -86 -61 -131q-55 -41 -146 -41q-65 0 -131 35z" />
<glyph unicode="&#x327;" horiz-adv-x="688" d="M141 -418l25 68q61 -31 121 -31q113 0 112 88q0 94 -176 109l115 186h74l-86 -131q154 -20 153 -152q0 -86 -61 -131q-55 -41 -146 -41q-65 0 -131 35z" />
<glyph unicode="&#xb9;" horiz-adv-x="450" d="M53 1817l176 94h62v-895h-66v821h-4l-151 -78z" />
<glyph unicode="&#xba;" horiz-adv-x="755" d="M31 971q0 164 106 276q102 109 242 109q154 0 250 -103q96 -104 96 -272q0 -186 -115 -293q-96 -90 -231 -90q-152 0 -248 102q-100 105 -100 271zM104 975q0 -135 86 -227q80 -86 185 -86q135 0 211 102q63 86 63 213t-65 215q-78 100 -209 100q-133 0 -209 -108 q-62 -90 -62 -209z" />
<glyph unicode="&#xbb;" horiz-adv-x="872" d="M53 987h94l338 -409l-338 -410h-92l332 410zM371 987h94l338 -409l-336 -410h-94l332 410z" />
<glyph unicode="&#xbc;" horiz-adv-x="1599" d="M115 1413l176 92h61v-895h-65v822h-4l-152 -78zM248 -25l893 1541h76l-893 -1541h-76zM864 262v49l430 580h70v-565h135v-64h-135v-262h-72v262h-428zM948 326h344v348q0 57 4 123l-4 2q-16 -31 -37 -64q-6 -6 -10 -14q-4 -4 -10 -14l-18 -29z" />
<glyph unicode="&#xbd;" horiz-adv-x="1599" d="M78 1411l176 92h61v-893h-65v820h-4l-152 -78zM213 -25l893 1541h76l-891 -1541h-78zM922 0v47l147 137q305 287 305 461q0 88 -47 141q-55 61 -160 62q-57 0 -112 -29q-23 -10 -45 -24l-33 -25l-29 43q90 94 234 94q139 0 211 -86q55 -66 55 -155q0 -129 -90 -258 q-78 -109 -250 -261l-88 -79v-5h442v-63h-540z" />
<glyph unicode="&#xbe;" horiz-adv-x="1599" d="M74 662l32 57q66 -59 203 -60q121 0 185 68q51 53 51 127q0 135 -133 182q-47 18 -111 23l-53 4h-43v59h61q84 0 154 43q84 53 86 146q0 55 -39 96q-47 47 -131 47q-55 0 -111 -22q-41 -18 -67 -43l-35 53q41 31 88 49q63 25 125 25q125 0 188 -66q53 -57 54 -141 q0 -145 -166 -207v-4q205 -37 204 -232q0 -106 -75 -182q-88 -86 -242 -86q-141 1 -225 64zM342 -25l895 1541h76l-893 -1541h-78zM897 262v49l430 580h70v-565h135v-64h-135v-262h-72v262h-428zM981 326h344v348q0 57 4 123l-4 2q-16 -31 -37 -64q-6 -6 -10 -14 q-4 -4 -10 -14l-19 -29z" />
<glyph unicode="&#xbf;" horiz-adv-x="851" d="M154 -170q0 168 198 408q143 178 144 340l-7 120h68l10 -61q4 -37 4 -55q0 -188 -151 -375q-188 -225 -189 -375q0 -260 265 -260q129 0 239 82l33 -53q-115 -92 -281 -93q-162 0 -251 101q-82 88 -82 221zM449 1024q0 86 75.5 86t75.5 -86t-75.5 -86t-75.5 86z" />
<glyph unicode="&#xc0;" horiz-adv-x="1318" d="M72 0l573 1546h53l568 -1546h-72l-209 563h-635l-205 -563h-73zM336 1882h137l227 -256h-63zM373 625h590l-205 551q-57 160 -86 272h-4q-39 -137 -86 -268z" />
<glyph unicode="&#xc1;" horiz-adv-x="1318" d="M72 0l573 1546h53l568 -1546h-72l-209 563h-635l-205 -563h-73zM373 625h590l-205 551q-57 160 -86 272h-4q-39 -137 -86 -268zM616 1628l228 256h137l-301 -256h-64z" />
<glyph unicode="&#xc2;" horiz-adv-x="1318" d="M72 0l573 1546h53l568 -1546h-72l-209 563h-635l-205 -563h-73zM373 625h590l-205 551q-57 160 -86 272h-4q-39 -137 -86 -268zM385 1628l240 246h59l250 -246h-105l-172 174h-4l-174 -174h-94z" />
<glyph unicode="&#xc3;" horiz-adv-x="1318" d="M74 0l571 1546h53l568 -1546h-72l-209 563h-633l-205 -563h-73zM373 625h592l-205 551q-51 135 -86 272h-6q-39 -137 -86 -268zM406 1642q-2 74 34 127q39 55 105 56q27 0 57 -15q12 -4 33 -14l37 -20q74 -37 116 -37q59 0 64 84h61q0 -168 -131 -168q-39 0 -133 45 q-6 4 -16 8q-2 0 -4 2l-43 21q-31 12 -54 12q-55 0 -65 -101h-61z" />
<glyph unicode="&#xc4;" horiz-adv-x="1318" d="M74 0l573 1546h51l568 -1546h-72l-209 563h-633l-205 -563h-73zM373 625h590l-203 551q-51 135 -86 272h-6q-27 -94 -41 -137q-20 -63 -45 -131zM397 1749q0 82 76 82q74 0 74 -82q0 -80 -76 -80q-41 0 -61 29q-6 12 -11 26q-2 13 -2 25zM776 1749q0 82 76 82 q74 0 74 -82q0 -80 -76 -80q-74 0 -74 80z" />
<glyph unicode="&#xc5;" horiz-adv-x="1318" d="M72 0l575 1546h51l568 -1546h-72l-207 563h-637l-203 -563h-75zM373 625h592l-205 551q-57 160 -86 272h-6q-27 -94 -41 -137q-20 -63 -45 -131zM465 1784q0 84 59 139q57 55 142 55q86 0 143 -57q53 -57 53 -137q0 -76 -59 -129q-57 -53 -139 -53q-86 0 -142 53 q-57 53 -57 129zM545 1784q0 -125 117 -125q121 0 120 133q0 131 -120 131q-57 0 -89 -45q-28 -39 -28 -94z" />
<glyph unicode="&#xc6;" horiz-adv-x="1648" d="M-10 0l747 1546h1024v-61h-913l74 -639h569v-62h-561l86 -723h1095l-2 -61h-1153l-82 649h-493l-318 -649h-73zM414 711h454l-71 641q-10 86 -13 139h-10q-20 -49 -53 -121q-20 -49 -62 -137z" />
<glyph unicode="&#xc7;" horiz-adv-x="1298" d="M88 766q0 350 201 571q211 233 573 234h2q129 0 234 -25q39 -10 71 -22l48 -21l-29 -59q-135 70 -320 69q-328 0 -516 -204q-188 -203 -188 -549q0 -332 178 -524q182 -199 500 -199q209 0 356 76l29 -58q-66 -33 -170 -53q-117 -25 -252 -25q-33 0 -103 9l-73 -115 q156 -18 155 -154q0 -164 -202 -163q-82 0 -136 34l25 70q57 -31 123 -31q109 0 108 82q0 49 -53 76q-43 23 -123 31l111 180q-240 49 -383 229q-80 96 -121 228q-45 141 -45 313z" />
<glyph unicode="&#xc8;" horiz-adv-x="1042" d="M193 0v1546h733v-63h-662v-635h625v-64h-625v-721h699v-63h-770zM199 1882h135l227 -256h-61z" />
<glyph unicode="&#xc9;" horiz-adv-x="1042" d="M193 0v1546h733v-63h-662v-635h625v-64h-625v-721h699v-63h-770zM477 1628l230 256h137l-303 -256h-64z" />
<glyph unicode="&#xca;" horiz-adv-x="1042" d="M193 0v1546h733v-63h-662v-635h625v-64h-625v-721h699v-63h-770zM246 1628l241 246h60l248 -246h-103l-174 174h-4l-172 -174h-96z" />
<glyph unicode="&#xcb;" horiz-adv-x="1042" d="M193 0v1546h733v-63h-662v-635h625v-64h-625v-721h699v-63h-770zM258 1749q0 82 76 82q74 0 74 -82q0 -80 -76 -80q-41 0 -62 29q-6 12 -10 26q-2 13 -2 25zM639 1749q0 82 76 82q74 0 73 -82q0 -80 -75 -80q-74 0 -74 80z" />
<glyph unicode="&#xcc;" horiz-adv-x="458" d="M-94 1882h137l225 -256h-61zM193 0v1546h71v-1546h-71z" />
<glyph unicode="&#xcd;" horiz-adv-x="458" d="M186 1628l228 256h137l-301 -256h-64zM193 0v1546h71v-1546h-71z" />
<glyph unicode="&#xce;" horiz-adv-x="458" d="M-45 1628l240 246h59l248 -246h-103l-172 174h-4l-174 -174h-94zM193 0v1546h71v-1546h-71z" />
<glyph unicode="&#xcf;" horiz-adv-x="458" d="M-35 1749q0 82 76 82q74 0 74 -82q0 -80 -76 -80q-41 0 -62 29q-6 12 -10 26q-2 13 -2 25zM193 0v1546h71v-1546h-71zM346 1749q0 82 76 82q74 0 74 -82q0 -80 -76 -80q-74 0 -74 80z" />
<glyph unicode="&#xd0;" horiz-adv-x="1474" d="M-12 752v63h213v711l178 22q104 10 203 11q807 0 807 -750q0 -244 -86 -418q-76 -154 -213 -250q-119 -82 -281 -121q-131 -31 -279 -30q-92 0 -161 2q-84 4 -168 10v750h-213zM272 63q109 -16 256 -16q207 0 363 64q145 59 244 172q90 102 135 245q43 131 43 292 q0 310 -172 485q-193 195 -574 194q-170 0 -295 -29v-655h502v-63h-502v-689z" />
<glyph unicode="&#xd1;" horiz-adv-x="1443" d="M193 0v1546h67l731 -1104l76 -120q74 -119 123 -218l4 5q-10 139 -12 294q-2 66 -2 154v989h71v-1546h-71l-676 1028l-111 172q-84 133 -135 234l-6 -2q12 -162 12 -601v-831h-71zM469 1642q-2 74 35 127q39 55 104 56q27 0 58 -15q12 -4 32 -14l37 -20q74 -37 117 -37 q59 0 63 84h62q0 -168 -131 -168q-39 0 -133 45q-6 4 -17 8q-2 0 -4 2l-43 21q-31 12 -53 12q-55 0 -66 -101h-61z" />
<glyph unicode="&#xd2;" horiz-adv-x="1521" d="M88 758q0 377 199 600q190 213 485 213q293 0 477 -211q186 -215 187 -572q0 -199 -58 -360q-55 -147 -153 -252q-190 -201 -469 -201q-287 0 -471 207q-197 218 -197 576zM164 760q0 -274 151 -486q80 -113 187 -172q117 -68 256 -67q276 0 446 225q156 211 156 522 q0 285 -141 490q-76 113 -183 172q-119 68 -266 67q-150 0 -270 -65q-111 -61 -189 -174q-147 -209 -147 -512zM438 1882h137l228 -256h-64z" />
<glyph unicode="&#xd3;" horiz-adv-x="1521" d="M88 758q0 377 199 600q190 213 485 213q293 0 477 -211q186 -215 187 -572q0 -199 -58 -360q-55 -147 -153 -252q-190 -201 -469 -201q-287 0 -471 207q-197 218 -197 576zM164 760q0 -274 151 -486q80 -113 187 -172q117 -68 256 -67q276 0 446 225q156 211 156 522 q0 285 -141 490q-76 113 -183 172q-119 68 -266 67q-150 0 -270 -65q-111 -61 -189 -174q-147 -209 -147 -512zM719 1628l227 256h137l-301 -256h-63z" />
<glyph unicode="&#xd4;" horiz-adv-x="1521" d="M88 758q0 377 199 600q190 213 485 213q293 0 477 -211q186 -215 187 -572q0 -199 -58 -360q-55 -147 -153 -252q-190 -201 -469 -201q-287 0 -471 207q-197 218 -197 576zM164 760q0 -274 151 -486q80 -113 187 -172q117 -68 256 -67q276 0 446 225q156 211 156 522 q0 285 -141 490q-76 113 -183 172q-119 68 -266 67q-150 0 -270 -65q-111 -61 -189 -174q-147 -209 -147 -512zM487 1628l240 246h61l248 -246h-102l-174 174h-4l-174 -174h-95z" />
<glyph unicode="&#xd5;" horiz-adv-x="1521" d="M88 758q0 377 199 600q190 213 485 213q293 0 477 -211q186 -215 187 -572q0 -199 -58 -360q-55 -147 -153 -252q-190 -201 -469 -201q-287 0 -473 207q-195 218 -195 576zM164 760q0 -274 151 -486q78 -113 187 -172q117 -68 256 -67q276 0 446 225q156 211 156 522 q0 285 -141 490q-76 113 -183 172q-119 68 -266 67q-152 0 -272 -65q-111 -61 -189 -174q-145 -209 -145 -512zM506 1642q-2 74 35 127q39 55 104 56q29 0 60 -15q12 -4 32 -14l37 -20q70 -37 117 -37q59 0 63 84h62q0 -168 -131 -168q-43 0 -133 45l-64 31q-33 12 -53 12 q-57 0 -68 -101h-61z" />
<glyph unicode="&#xd6;" horiz-adv-x="1521" d="M88 758q0 377 199 600q190 213 485 213q293 0 477 -211q186 -215 187 -572q0 -199 -58 -360q-55 -147 -153 -252q-190 -201 -469 -201q-287 0 -471 207q-197 218 -197 576zM164 760q0 -274 151 -486q80 -113 187 -172q117 -68 256 -67q276 0 446 225q156 211 156 522 q0 285 -141 490q-76 113 -183 172q-119 68 -266 67q-150 0 -270 -65q-111 -61 -189 -174q-147 -209 -147 -512zM498 1749q0 82 75 82q74 0 74 -82q0 -80 -76 -80q-41 0 -61 29q-6 12 -10 26q-2 13 -2 25zM879 1749q0 82 75 82q74 0 74 -82q0 -80 -76 -80q-73 0 -73 80z" />
<glyph unicode="&#xd7;" horiz-adv-x="2048" d="M379 168l594 594l-594 592l53 53l592 -594l594 594l51 -51l-594 -594l594 -594l-51 -51l-594 594l-594 -594z" />
<glyph unicode="&#xd8;" horiz-adv-x="1521" d="M88 758q0 381 205 604q188 209 479 209q248 0 422 -156l143 184l54 -38l-152 -197q197 -219 197 -573q0 -203 -60 -365q-55 -150 -155 -254q-186 -197 -455 -197q-260 0 -442 166l-150 -192l-45 39l152 202q-193 216 -193 568zM164 774q0 -160 45 -295q37 -113 115 -231 h4l821 1110q-147 154 -377 153q-147 0 -268 -67q-111 -59 -191 -172q-149 -211 -149 -498zM367 199q96 -82 172 -119q98 -45 219 -45q279 0 448 231q154 211 154 516q0 137 -41 277q-45 150 -123 246h-4z" />
<glyph unicode="&#xd9;" horiz-adv-x="1415" d="M193 594v952h71v-936q0 -291 127 -440q115 -135 305 -135q209 0 328 139q127 152 127 438v934h72v-932q0 -172 -45 -301q-41 -119 -117 -196q-139 -141 -371 -142q-213 0 -342 134q-74 76 -112 190q-43 125 -43 295zM385 1882h137l228 -256h-64z" />
<glyph unicode="&#xda;" horiz-adv-x="1415" d="M193 594v952h71v-934q0 -293 127 -442q115 -135 305 -135q209 0 328 139q127 152 127 438v934h72v-932q0 -172 -45 -301q-41 -119 -117 -196q-139 -141 -371 -142q-213 0 -342 134q-74 76 -112 190q-43 125 -43 295zM666 1628l227 256h137l-301 -256h-63z" />
<glyph unicode="&#xdb;" horiz-adv-x="1415" d="M193 594v952h71v-934q0 -293 127 -442q115 -135 305 -135q209 0 328 139q127 152 127 438v934h72v-932q0 -172 -45 -301q-41 -119 -117 -196q-139 -141 -371 -142q-213 0 -342 134q-74 76 -112 190q-43 125 -43 295zM434 1628l240 246h61l248 -246h-102l-174 174h-5 l-174 -174h-94z" />
<glyph unicode="&#xdc;" horiz-adv-x="1415" d="M193 594v952h71v-934q0 -293 127 -442q115 -135 305 -135q209 0 328 139q127 152 127 438v934h72v-932q0 -172 -45 -301q-41 -119 -117 -196q-139 -141 -371 -142q-213 0 -342 134q-74 76 -112 190q-43 125 -43 295zM444 1749q0 82 76 82q74 0 74 -82q0 -80 -76 -80 q-41 0 -61 29q-6 12 -11 26q-2 13 -2 25zM825 1749q0 82 76 82q74 0 74 -82q0 -80 -76 -80q-74 0 -74 80z" />
<glyph unicode="&#xdd;" horiz-adv-x="1118" d="M33 1546h90l360 -645l84 -164h6q31 63 86 162q6 8 13 21l364 626h92l-528 -876v-670h-72v676zM516 1628l227 256h138l-301 -256h-64z" />
<glyph unicode="&#xde;" horiz-adv-x="1097" d="M193 0v1546h71v-323q121 25 244 24q268 0 395 -127q111 -111 111 -268q0 -209 -153.5 -334t-409.5 -125q-102 0 -187 15v-408h-71zM264 469q76 -16 185 -16q225 0 356 102q133 104 133 281q0 178 -123 268q-113 84 -307 84q-74 0 -143 -8q-59 -6 -101 -15v-696z" />
<glyph unicode="&#xdf;" horiz-adv-x="1146" d="M193 0v1077q0 188 40 309q37 109 113 177q104 90 268 90q135 0 230 -86q104 -98 104 -271q0 -59 -16 -112q-12 -37 -33 -74q-188 -68 -188 -207q0 -72 39 -129q18 -25 47 -55l59 -57q49 -47 72 -74q37 -41 61 -78q55 -88 55 -197q0 -150 -100 -244t-266 -94 q-141 0 -244 54l29 61q125 -55 223 -55q133 0 213 84q72 74 72 182q0 164 -154 299q-94 86 -131 143q-47 70 -47 148q0 178 217 276q20 47 21 117q0 309 -283 309q-330 0 -330 -524v-1069h-71z" />
<glyph unicode="&#xe0;" horiz-adv-x="1017" d="M94 270q0 397 646 398h26v53l-4 61q-8 74 -33 129q-31 68 -88 107q-68 43 -170 43q-147 0 -270 -88l-29 53q72 49 160 76q74 20 145 20q207 0 297 -143q35 -59 51 -139q12 -66 13 -146v-434q0 -76 2 -129q4 -72 14 -131h-68l-16 166h-4q-45 -76 -129 -127 q-102 -63 -225 -64q-154 0 -242 95q-76 81 -76 200zM168 283q0 -121 74 -189q68 -59 166 -59q92 0 165 35q63 31 111 84q80 92 80 186v264h-32q-80 0 -150 -8q-113 -10 -195 -41q-102 -37 -156 -98q-63 -72 -63 -174zM252 1575h135l203 -313h-60z" />
<glyph unicode="&#xe1;" horiz-adv-x="1017" d="M94 270q0 397 646 398h26v53l-4 61q-8 74 -33 129q-31 68 -88 107q-68 43 -170 43q-147 0 -270 -88l-29 53q72 49 160 76q74 20 145 20q207 0 297 -143q35 -59 51 -139q12 -66 13 -146v-434q0 -76 2 -129q4 -72 14 -131h-68l-16 166h-4q-45 -76 -129 -127 q-102 -63 -225 -64q-154 0 -242 95q-76 81 -76 200zM168 283q0 -121 74 -189q68 -59 166 -59q92 0 165 35q63 31 111 84q80 92 80 186v264h-32q-80 0 -150 -8q-113 -10 -195 -41q-102 -37 -156 -98q-63 -72 -63 -174zM449 1262l204 313h135l-278 -313h-61z" />
<glyph unicode="&#xe2;" horiz-adv-x="1017" d="M94 270q0 397 646 398h26v53l-4 61q-8 74 -33 129q-31 68 -88 107q-68 43 -170 43q-147 0 -270 -88l-29 53q72 49 160 76q74 20 145 20q207 0 297 -143q35 -59 51 -139q12 -66 13 -146v-434q0 -76 2 -129q4 -72 14 -131h-68l-16 166h-4q-45 -76 -129 -127 q-102 -63 -225 -64q-154 0 -242 95q-76 81 -76 200zM168 283q0 -121 74 -189q68 -59 166 -59q92 0 165 35q63 31 111 84q80 92 80 186v264h-32q-80 0 -150 -8q-113 -10 -195 -41q-102 -37 -156 -98q-63 -72 -63 -174zM272 1262l205 313h55l216 -313h-93l-149 233h-4 l-148 -233h-82z" />
<glyph unicode="&#xe3;" horiz-adv-x="1017" d="M94 270q0 397 646 398h26v53l-4 61q-8 74 -33 129q-31 68 -88 107q-68 43 -170 43q-147 0 -270 -88l-29 53q72 49 160 76q74 20 145 20q207 0 297 -143q35 -59 51 -139q12 -66 13 -146v-434q0 -76 2 -129q4 -72 14 -131h-68l-16 166h-4q-45 -76 -129 -127 q-102 -63 -225 -64q-154 0 -242 95q-76 81 -76 200zM168 283q0 -121 74 -189q68 -59 166 -59q92 0 165 35q63 31 111 84q80 92 80 186v264h-32q-80 0 -150 -8q-113 -10 -195 -41q-102 -37 -156 -98q-63 -72 -63 -174zM264 1317q0 186 131 186q27 0 60 -14l41 -21q2 -2 4 -2 l32 -16q61 -33 95 -33q59 0 65 92h62q-4 -176 -127 -176q-41 0 -127 47q-82 41 -109 41q-55 0 -63 -104h-64z" />
<glyph unicode="&#xe4;" horiz-adv-x="1017" d="M94 270q0 397 646 398h26v53l-4 61q-8 74 -33 129q-31 68 -88 107q-68 43 -170 43q-147 0 -270 -88l-29 53q72 49 160 76q74 20 145 20q207 0 297 -143q35 -59 51 -139q12 -66 13 -146v-434q0 -76 2 -129q4 -72 14 -131h-68l-16 166h-4q-45 -76 -129 -127 q-102 -63 -225 -64q-154 0 -242 95q-76 81 -76 200zM168 283q0 -121 74 -189q68 -59 166 -59q92 0 165 35q63 31 111 84q80 92 80 186v264h-32q-80 0 -150 -8q-113 -10 -195 -41q-102 -37 -156 -98q-63 -72 -63 -174zM250 1411q0 78 73.5 78t73.5 -78t-78 -78q-69 0 -69 78z M623 1411q0 78 73.5 78t73.5 -78t-76 -78q-71 0 -71 78z" />
<glyph unicode="&#xe5;" horiz-adv-x="1017" d="M94 270q0 397 646 398h26v53l-4 61q-8 74 -33 129q-31 68 -88 107q-68 43 -170 43q-147 0 -270 -88l-29 53q72 49 160 76q74 20 145 20q207 0 297 -143q35 -59 51 -139q12 -66 13 -146v-434q0 -76 2 -129q4 -72 14 -131h-68l-16 166h-4q-45 -76 -129 -127 q-102 -63 -225 -64q-154 0 -242 95q-76 81 -76 200zM168 283q0 -121 74 -189q68 -59 166 -59q92 0 165 35q63 31 111 84q80 92 80 186v264h-32q-80 0 -150 -8q-113 -10 -195 -41q-102 -37 -156 -98q-63 -72 -63 -174zM307 1427q0 84 59.5 143.5t147.5 59.5q82 0 141 -59 q59 -61 60 -146q0 -82 -61.5 -139t-141.5 -57q-84 0 -145 59q-60 57 -60 139zM387 1427q0 -137 125 -137q127 0 127 139.5t-129 139.5q-123 -1 -123 -142z" />
<glyph unicode="&#xe6;" horiz-adv-x="1716" d="M94 258q0 188 166 293q162 101 464 101q23 0 46 -1v56q0 41 -8 88q-14 66 -41 118q-35 66 -88 103q-68 45 -160 45q-160 0 -274 -90l-31 57q76 51 172 76q74 18 135 18q299 0 348 -278h4q102 279 392 278q117 0 204 -55q72 -49 121 -133q37 -70 58 -158q14 -68 14 -125 q0 -41 -4 -57h-772q-1 -25 -1 -50q0 -231 105 -368q109 -141 297 -141q104 0 191 28q31 10 59 23l39 21l24 -62q-49 -29 -122 -47q-92 -23 -195 -23q-147 0 -262 76q-119 78 -156 211h-4q-86 -287 -407 -287q-154 0 -240 93q-74 77 -74 190zM168 270q0 -104 72 -172 q68 -63 168 -63q160 0 262 104q98 100 98 244v207h-36q-88 0 -165 -8q-113 -12 -194 -43q-96 -37 -148 -99q-57 -70 -57 -170zM840 657h696q1 14 1 28q0 122 -67 228q-90 147 -256 148q-170 0 -276 -139q-90 -118 -98 -265z" />
<glyph unicode="&#xe7;" horiz-adv-x="1024" d="M98 537q0 262 160 426q156 160 395 159h2q72 0 152 -18q90 -23 137 -62l-33 -53l-45 25q-29 14 -57 24q-76 25 -158 25q-223 0 -356 -158q-123 -145 -123 -360q0 -225 129 -367q127 -141 328 -141q90 0 172 26q29 8 61 23l49 23l29 -56q-10 -6 -20 -10q-12 -6 -27 -10 l-70 -27q-100 -29 -207 -29l-51 3l-71 -109q154 -20 153 -152q0 -86 -61 -131q-55 -41 -146 -41q-63 0 -133 35l27 68q61 -31 121 -31q113 0 112 90q0 51 -53 78q-43 23 -123 29l107 174q-182 39 -291 186q-109 150 -109 361z" />
<glyph unicode="&#xe8;" horiz-adv-x="1097" d="M96 528q0 276 142 441q133 154 342 153q117 0 202 -47q78 -43 129 -123q45 -72 66 -166q20 -82 20 -174v-18q0 -10 -2 -16h-825q-4 -541 436 -541q109 0 193 24q31 8 63 23q16 6 49 22l25 -55q-6 -4 -14 -8q-12 -6 -25 -10q-31 -14 -68 -25q-47 -14 -100 -22 q-63 -8 -133 -9q-227 0 -365 156q-135 151 -135 395zM178 641h740q0 55 -13 119q-16 78 -49 139q-41 76 -106 117q-76 49 -179 49q-174 0 -284 -143q-91 -117 -109 -281zM291 1575h135l205 -313h-62z" />
<glyph unicode="&#xe9;" horiz-adv-x="1097" d="M96 528q0 276 142 441q133 154 342 153q117 0 202 -47q78 -43 129 -123q45 -72 66 -166q20 -82 20 -174v-18q0 -10 -2 -16h-825q-4 -541 436 -541q109 0 193 24q31 8 63 23q16 6 49 22l25 -55q-6 -4 -14 -8q-12 -6 -25 -10q-31 -14 -68 -25q-47 -14 -100 -22 q-63 -8 -133 -9q-227 0 -365 156q-135 151 -135 395zM178 641h740q0 55 -13 119q-16 78 -49 139q-41 76 -106 117q-76 49 -179 49q-174 0 -284 -143q-91 -117 -109 -281zM489 1262l205 313h133l-278 -313h-60z" />
<glyph unicode="&#xea;" horiz-adv-x="1097" d="M96 528q0 276 142 441q133 154 342 153q117 0 202 -47q78 -43 129 -123q45 -72 66 -166q20 -82 20 -174v-18q0 -10 -2 -16h-825q-4 -541 436 -541q109 0 193 24q31 8 63 23q16 6 49 22l25 -55q-6 -4 -14 -8q-12 -6 -25 -10q-31 -14 -68 -25q-47 -14 -100 -22 q-63 -8 -133 -9q-227 0 -365 156q-135 151 -135 395zM178 641h740q0 55 -13 119q-16 78 -49 139q-41 76 -106 117q-76 49 -179 49q-174 0 -284 -143q-91 -117 -109 -281zM311 1262l205 313h57l213 -313h-90l-151 233h-4l-146 -233h-84z" />
<glyph unicode="&#xeb;" horiz-adv-x="1097" d="M96 528q0 276 142 441q133 154 342 153q117 0 202 -47q78 -43 129 -123q45 -72 66 -166q20 -82 20 -174v-18q0 -10 -2 -16h-825q-4 -541 436 -541q109 0 193 24q31 8 63 23q16 6 49 22l25 -55q-6 -4 -14 -8q-12 -6 -25 -10q-31 -14 -68 -25q-47 -14 -100 -22 q-63 -8 -133 -9q-227 0 -365 156q-135 151 -135 395zM178 641h740q0 55 -13 119q-16 78 -49 139q-41 76 -106 117q-76 49 -179 49q-174 0 -284 -143q-91 -117 -109 -281zM289 1411q0 78 73.5 78t73.5 -78t-78 -78q-69 0 -69 78zM662 1411q0 78 73.5 78t73.5 -78t-76 -78 q-71 0 -71 78z" />
<glyph unicode="&#xec;" horiz-adv-x="454" d="M-29 1575h135l203 -313h-59zM193 0v1098h71v-1098h-71z" />
<glyph unicode="&#xed;" horiz-adv-x="454" d="M168 1262l205 313h133l-279 -313h-59zM193 0v1098h71v-1098h-71z" />
<glyph unicode="&#xee;" horiz-adv-x="454" d="M-8 1262l205 313h55l213 -313h-90l-152 233h-4l-145 -233h-82zM193 0v1098h71v-1098h-71z" />
<glyph unicode="&#xef;" horiz-adv-x="454" d="M-33 1411q0 78 74 78t74 -78t-78 -78q-70 0 -70 78zM193 0v1098h71v-1098h-71zM340 1411q0 78 73.5 78t73.5 -78t-75 -78q-72 0 -72 78z" />
<glyph unicode="&#xf0;" horiz-adv-x="1175" d="M98 539q0 272 154 440q141 154 334 154q96 0 172 -29q92 -35 172 -119l2 4q-59 111 -141 209q-88 106 -195 191l-313 -158l-27 51l291 145q-47 39 -121 84q-66 39 -141 78l30 60q88 -47 156 -88q84 -53 141 -101l269 137l28 -49l-250 -127q190 -162 295 -356 q121 -227 121 -494q0 -154 -45 -274q-41 -109 -115 -184q-137 -137 -340 -138q-211 0 -342 154q-135 156 -135 410zM172 543q0 -199 107 -346q117 -162 301 -162q186 0 305 151q117 147 116 373q0 246 -100 367q-55 61 -121 98q-88 47 -192.5 47t-188.5 -51 q-76 -47 -129 -129q-98 -151 -98 -348z" />
<glyph unicode="&#xf1;" horiz-adv-x="1212" d="M184 1098h70l6 -205h4q127 229 385 229q20 0 41 -2q27 -4 55 -10q70 -18 125 -59q72 -53 111 -140q47 -104 47 -252v-659h-72v653q0 176 -71 283q-84 125 -252 125q-156 0 -266 -123q-102 -115 -103 -252v-686h-71v850q-1 135 -9 248zM362 1317q0 186 132 186 q27 0 59 -14l41 -21q2 -2 4 -2l33 -16q61 -33 94 -33q59 0 66 92h61q-4 -176 -127 -176q-41 0 -127 47l-35 17q-18 8 -28 14q-27 10 -46 10q-55 0 -63 -104h-64z" />
<glyph unicode="&#xf2;" horiz-adv-x="1204" d="M96 539q0 270 156 434q143 150 352 149q227 0 365 -157q137 -156 137 -406q0 -147 -47 -264q-43 -106 -123 -182q-143 -137 -344 -138q-215 0 -352 154q-144 158 -144 410zM170 545q0 -207 123 -357q125 -154 301 -153q182 0 309 145q129 147 129 371q0 199 -100 344 q-119 168 -326 168q-205 0 -325 -162q-111 -145 -111 -356zM344 1575h135l203 -313h-59z" />
<glyph unicode="&#xf3;" horiz-adv-x="1204" d="M96 539q0 270 156 434q143 150 352 149q227 0 365 -157q137 -156 137 -406q0 -147 -47 -264q-43 -106 -123 -182q-143 -137 -344 -138q-215 0 -352 154q-144 158 -144 410zM170 545q0 -207 123 -357q125 -154 301 -153q182 0 309 145q129 147 129 371q0 199 -100 344 q-119 168 -326 168q-205 0 -325 -162q-111 -145 -111 -356zM541 1262l204 313h134l-279 -313h-59z" />
<glyph unicode="&#xf4;" horiz-adv-x="1204" d="M96 539q0 270 156 434q143 150 352 149q227 0 365 -157q137 -156 137 -406q0 -147 -47 -264q-43 -106 -123 -182q-143 -137 -344 -138q-215 0 -352 154q-144 158 -144 410zM170 545q0 -207 123 -357q125 -154 301 -153q182 0 309 145q129 147 129 371q0 199 -100 344 q-119 168 -326 168q-205 0 -325 -162q-111 -145 -111 -356zM362 1262l205 313h58l215 -313h-92l-152 233h-4l-146 -233h-84z" />
<glyph unicode="&#xf5;" horiz-adv-x="1204" d="M96 539q0 270 156 434q143 150 352 149q227 0 365 -157q137 -156 137 -406q0 -147 -47 -264q-43 -106 -123 -182q-143 -137 -344 -138q-215 0 -352 154q-144 158 -144 410zM170 545q0 -207 123 -357q125 -154 301 -153q182 0 309 145q129 147 129 371q0 199 -100 344 q-119 168 -326 168q-205 0 -325 -162q-111 -145 -111 -356zM358 1317q0 186 131 186q27 0 60 -14l76 -39q66 -33 96 -33q59 0 65 92h62q-4 -176 -127 -176q-41 0 -127 45q-82 43 -109 43q-55 0 -63 -104h-64z" />
<glyph unicode="&#xf6;" horiz-adv-x="1204" d="M96 539q0 270 156 434q143 150 352 149q227 0 365 -157q137 -156 137 -406q0 -147 -47 -264q-43 -106 -123 -182q-143 -137 -344 -138q-215 0 -352 154q-144 158 -144 410zM170 545q0 -207 123 -357q125 -154 301 -153q182 0 309 145q129 147 129 371q0 199 -100 344 q-119 168 -326 168q-205 0 -325 -162q-111 -145 -111 -356zM342 1411q0 78 73.5 78t73.5 -78t-77 -78q-70 0 -70 78zM715 1411q0 78 73.5 78t73.5 -78t-76 -78q-71 0 -71 78z" />
<glyph unicode="&#xf7;" horiz-adv-x="2048" d="M262 725v74h1524v-74h-1524zM905 233.5q0 118.5 119 118.5t119 -118.5t-119 -118.5t-119 118.5zM905 1290q0 119 119 119t119 -119t-119 -119t-119 119z" />
<glyph unicode="&#xf8;" horiz-adv-x="1204" d="M96 541q0 244 148 413q147 168 362 168q174 0 297 -98l84 117l60 -41l-91 -125q150 -156 150 -416q0 -147 -47 -264q-43 -106 -123 -180q-143 -139 -342 -140q-164 0 -295 97l-86 -121l-57 43l90 127q-150 162 -150 420zM170 545q0 -209 119 -363l575 787 q-104 94 -258 94q-207 0 -327 -166q-109 -145 -109 -352zM340 129q115 -94 254 -94q184 0 311 149q127 147 127 369q0 90 -26 178q-31 100 -91 178h-4z" />
<glyph unicode="&#xf9;" horiz-adv-x="1200" d="M182 459v639h72v-617q0 -446 315 -446q143 0 254 115q113 115 113 266v682h72v-844q0 -141 8 -254h-68l-8 201h-4q-49 -92 -135 -152q-104 -74 -242 -74q-59 0 -113 17q-70 20 -122 65q-66 55 -101 146q-41 106 -41 256zM342 1575h135l205 -313h-59z" />
<glyph unicode="&#xfa;" horiz-adv-x="1200" d="M182 459v639h72v-617q0 -446 315 -446q143 0 254 115q113 115 113 266v682h72v-844q0 -141 8 -254h-68l-8 201h-4q-49 -92 -135 -152q-104 -74 -242 -74q-59 0 -113 17q-70 20 -122 65q-66 55 -101 146q-41 106 -41 256zM541 1262l204 313h134l-279 -313h-59z" />
<glyph unicode="&#xfb;" horiz-adv-x="1200" d="M182 459v639h72v-617q0 -446 315 -446q143 0 254 115q113 115 113 266v682h72v-844q0 -141 8 -254h-68l-8 201h-4q-49 -92 -135 -152q-104 -74 -242 -74q-59 0 -113 17q-70 20 -122 65q-66 55 -101 146q-41 106 -41 256zM362 1262l205 313h58l213 -313h-90l-152 233h-4 l-146 -233h-84z" />
<glyph unicode="&#xfc;" horiz-adv-x="1200" d="M182 459v639h72v-617q0 -446 315 -446q143 0 254 115q113 115 113 266v682h72v-844q0 -141 8 -254h-68l-8 201h-4q-49 -92 -135 -152q-104 -74 -242 -74q-59 0 -113 17q-70 20 -122 65q-66 55 -101 146q-41 106 -41 256zM340 1411q0 78 73.5 78t73.5 -78t-77 -78 q-70 0 -70 78zM713 1411q0 78 73.5 78t73.5 -78t-76 -78q-71 0 -71 78z" />
<glyph unicode="&#xfd;" horiz-adv-x="980" d="M23 1098h81l306 -756l86 -231h4l374 987h80l-340 -834q-162 -410 -268 -553q-55 -76 -123 -127q-55 -41 -151 -90l-27 57q104 41 191 125q70 68 124 160q39 66 66 137q6 12 10 25l10 37q0 6 -4 18zM430 1262l205 313h133l-279 -313h-59z" />
<glyph unicode="&#xfe;" horiz-adv-x="1251" d="M193 -455v1977h71v-643h4q131 244 412 243q211 0 344 -155q131 -156 131 -398q0 -291 -154 -450q-137 -143 -352 -144q-238 0 -379 218h-6v-648h-71zM264 424q0 -147 111 -264q119 -125 293 -125q184 0 298.5 145.5t114.5 384.5q0 207 -108 348q-115 150 -303 150 q-164 0 -285 -131t-121 -301v-207z" />
<glyph unicode="&#xff;" horiz-adv-x="980" d="M23 1098h81l306 -756l86 -231h6l372 987h82l-340 -836l-92 -223q-45 -106 -86 -180q-88 -168 -190 -258q-51 -43 -113 -76l-55 -27q-6 -2 -8 -4l-27 55q98 39 182 119q70 66 125 156q43 68 72 137q23 57 22 74q0 14 -14 45zM229 1411q0 78 74 78t74 -78t-78 -78 q-70 0 -70 78zM604 1411q0 78 74 78t74 -78t-76 -78q-72 0 -72 78z" />
<glyph unicode="&#x152;" horiz-adv-x="1966" d="M88 762q0 381 211 600q203 209 530 209q49 0 109 -4l92 -6l78 -11q43 -4 70 -4h669v-63h-661v-635h624v-64h-624v-721h698v-63h-719q-31 0 -75 -4l-82 -10l-93 -6q-55 -4 -100 -5q-326 0 -526.5 219.5t-200.5 567.5zM164 768q0 -334 176 -532q180 -201 491 -201 q166 0 283 35v1405q-39 10 -57 14q-33 6 -64 10q-76 12 -172 12q-313 0 -491 -217q-166 -200 -166 -526z" />
<glyph unicode="&#x153;" horiz-adv-x="1968" d="M96 539q0 266 150 430q141 154 348 153q338 0 442 -323h6q115 324 416 323q123 0 213 -55q76 -49 125 -133q39 -72 59 -160q14 -70 15 -135q0 -43 -2 -61h-791v-18q0 -246 115 -386q115 -139 307 -139q96 0 176 22q33 10 64 23l49 24l29 -59q-49 -27 -134 -47 q-96 -23 -190 -23q-336 0 -457 322h-4q-51 -156 -182 -244q-119 -78 -262 -78q-215 0 -352 154q-140 156 -140 410zM170 543q0 -223 127 -369q119 -139 291 -139q182 0 299 143q119 145 119 371q0 211 -105 354q-115 160 -315 160q-106 0 -193 -49q-76 -45 -129 -127 q-94 -147 -94 -344zM1077 641h713v16q0 58 -12 117q-16 78 -54 137q-41 70 -102 109q-72 43 -168 43q-170 0 -274 -143q-85 -115 -103 -279z" />
<glyph unicode="&#x178;" horiz-adv-x="1118" d="M33 1546h90l268 -477l92 -170q45 -84 84 -164h6q31 66 86 164l377 647h92l-528 -876v-670h-72v674zM297 1749q0 82 76 82q74 0 73 -82q0 -80 -75 -80q-41 0 -62 29q-6 12 -10 26q-2 13 -2 25zM676 1749q0 82 76 82q74 0 73 -82q0 -80 -75 -80q-74 0 -74 80z" />
<glyph unicode="&#x2bb;" horiz-adv-x="366" d="M94 1100q12 57 37 137l49 145q53 150 76 195l57 10q-74 -178 -112 -465z" />
<glyph unicode="&#x2018;" horiz-adv-x="366" d="M94 1100q12 57 37 137l49 145q53 150 76 195l57 10q-74 -178 -112 -465z" />
<glyph unicode="&#x2bc;" horiz-adv-x="366" d="M94 1100q74 178 113 465l106 22q-12 -57 -37 -137l-49 -145q-51 -147 -75 -197z" />
<glyph unicode="&#x2019;" horiz-adv-x="366" d="M94 1100q74 178 113 465l106 22q-12 -57 -37 -137l-49 -145q-51 -147 -75 -197z" />
<glyph unicode="&#x2c6;" horiz-adv-x="688" d="M106 1262l205 313h58l213 -313h-90l-152 233h-4l-146 -233h-84z" />
<glyph unicode="&#x302;" horiz-adv-x="688" d="M106 1262l205 313h58l213 -313h-90l-152 233h-4l-146 -233h-84z" />
<glyph unicode="&#x2dc;" horiz-adv-x="688" d="M100 1319q0 184 131 184q27 0 60 -14l76 -39q66 -33 96 -33q59 0 65 92h62q-4 -176 -127 -176q-43 0 -127 47q-82 41 -109 41q-55 0 -63 -102h-64z" />
<glyph unicode="&#x303;" horiz-adv-x="688" d="M100 1319q0 184 131 184q27 0 60 -14l76 -39q66 -33 96 -33q59 0 65 92h62q-4 -176 -127 -176q-43 0 -127 47q-82 41 -109 41q-55 0 -63 -102h-64z" />
<glyph unicode="&#x336;" horiz-adv-x="2293" d="M70 549v67h2154v-67h-2154z" />
<glyph unicode="&#x2014;" horiz-adv-x="2293" d="M70 549v67h2154v-67h-2154z" />
<glyph unicode="&#x2012;" horiz-adv-x="1146" d="M70 551v67h1007v-67h-1007z" />
<glyph unicode="&#x2013;" horiz-adv-x="1146" d="M70 551v67h1007v-67h-1007z" />
<glyph unicode="&#x201a;" horiz-adv-x="368" d="M57 -299q25 59 62 213q35 154 49 254l106 22q-12 -59 -36 -137l-50 -147q-53 -150 -75 -193z" />
<glyph unicode="&#x201c;" horiz-adv-x="614" d="M94 1100q12 57 37 137l49 145q53 150 76 195l57 10q-74 -178 -112 -465zM340 1100q12 57 37 137q20 70 47 145q53 152 76 195l57 10q-74 -178 -113 -465z" />
<glyph unicode="&#x201d;" horiz-adv-x="614" d="M94 1100q74 178 113 465l106 22q-12 -57 -37 -137l-49 -145q-51 -147 -75 -197zM342 1100q74 178 113 465l104 22q-12 -57 -37 -137l-49 -145q-51 -147 -76 -197z" />
<glyph unicode="&#x201e;" horiz-adv-x="612" d="M57 -299q25 57 62 213q35 152 51 254l104 22q-12 -59 -36 -137l-50 -147q-53 -150 -75 -193zM303 -299q72 176 113 467l104 22q-12 -59 -37 -137l-49 -147q-53 -150 -76 -193z" />
<glyph unicode="&#x2022;" horiz-adv-x="534" d="M76 602q0 76 57 133q55 55 133 56q80 0 137 -56q55 -55 56 -133q0 -80 -57.5 -135t-137.5 -55q-78 0 -133 55q-55 57 -55 135z" />
<glyph unicode="&#x2026;" horiz-adv-x="2048" d="M240 778.5q0 102.5 102 102.5t102 -102.5t-102 -102.5t-102 102.5zM922 778.5q0 102.5 102 102.5t102 -102.5t-102 -102.5t-102 102.5zM1604 778.5q0 102.5 102 102.5t102 -102.5t-102 -102.5t-102 102.5z" />
<glyph unicode="&#x2039;" horiz-adv-x="557" d="M70 578l336 409h94l-336 -409l338 -410h-94z" />
<glyph unicode="&#x203a;" horiz-adv-x="557" d="M53 987h94l338 -409l-338 -410h-92l336 410z" />
<glyph unicode="&#x2122;" horiz-adv-x="1355" d="M76 1487v59h497v-59h-215v-565h-65v565h-217zM604 922l53 624h97l161 -436q25 -74 46 -121h4q27 74 39 115l163 442h99l59 -624h-74l-32 448l-7 115h-4l-207 -553h-79l-172 461q-8 18 -13 32q-14 39 -24 60h-4q0 -49 -7 -115l-30 -448h-68z" />
<glyph unicode="&#xe000;" horiz-adv-x="1100" vert-adv-y="2200" d="M0 1100h1100v-1100h-1100v1100z" />
<glyph unicode="&#xfb01;" horiz-adv-x="1032" d="M193 0v1034v64v63q0 281 118 400q92 94 387 94q98 0 162 -43l-33 -53q-31 16 -57 24q-37 12 -84 12q-305 0 -373 -151q-27 -59 -39 -141q-10 -66 -10 -142v-63h459v-64h-459v-1034h-71zM731 1413q0 82 74 82q72 0 72 -82t-74 -82q-72 0 -72 82zM768 0v1098h72v-1098h-72z " />
<glyph unicode="&#xfb02;" horiz-adv-x="1030" d="M193 0v1034v64v63q0 281 118 400q92 94 387 94q98 0 162 -43l-33 -53q-31 16 -57 24q-37 12 -84 12q-305 0 -373 -151q-27 -59 -39 -141q-10 -66 -10 -142v-63h459v-64h-459v-1034h-71zM768 0v1628h72v-1628h-72z" />
<glyph unicode="&#xfb03;" horiz-adv-x="1607" d="M193 0v1034v64v63q0 281 118 400q92 94 387 94q98 0 162 -43l-33 -53q-31 16 -57 24q-37 12 -84 12q-305 0 -373 -151q-27 -59 -39 -141q-10 -66 -10 -142v-63h459v-64h-459v-1034h-71zM768 0v1034v64v63q0 281 119 400q92 94 387 94q98 0 162 -43l-33 -53q-31 16 -57 24 q-37 12 -84 12q-305 0 -373 -151q-27 -59 -39 -141q-10 -66 -10 -142v-63h458v-64h-458v-1034h-72zM1307 1413q0 82 73 82q72 0 72 -82t-74 -82q-71 0 -71 82zM1343 0v1098h72v-1098h-72z" />
<glyph unicode="&#xfb04;" horiz-adv-x="1605" d="M193 0v1034v64v63q0 281 118 400q92 94 387 94q98 0 162 -43l-33 -53q-31 16 -57 24q-37 12 -84 12q-305 0 -373 -151q-27 -59 -39 -141q-10 -66 -10 -142v-63h459v-64h-459v-1034h-71zM768 0v1034v64v63q0 281 119 400q92 94 387 94q98 0 162 -43l-33 -53q-31 16 -57 24 q-37 12 -84 12q-305 0 -373 -151q-27 -59 -39 -141q-10 -66 -10 -142v-63h458v-64h-458v-1034h-72zM1343 0v1628h72v-1628h-72z" />
</font>
</defs>
</svg>
